<?xml version="1.0" encoding="utf-8"?>
<svg width= "150" viewBox="3.4872 2.9353 389.6759 178.3998" xmlns="http://www.w3.org/2000/svg">
  <g id="svgg" transform="matrix(1, 0, 0, 1, -1.0958739845715257, -115.61644326497435)">
    <path id="path0" d="M79.259 140.904 L 79.259 152.560 81.762 154.022 C 88.928 158.207,94.066 163.370,98.742 171.084 L 100.185 173.465 100.286 165.899 C 100.409 156.660,100.155 132.088,99.921 130.556 L 99.750 129.444 89.505 129.346 L 79.259 129.248 79.259 140.904 M113.333 181.661 L 113.333 234.074 124.259 234.074 C 135.838 234.074,135.864 234.069,134.074 232.279 L 132.963 231.168 132.963 212.772 C 132.963 194.653,132.974 194.372,133.708 194.180 C 134.419 193.994,134.690 134.932,134.000 130.556 L 133.824 129.444 123.579 129.346 L 113.333 129.248 113.333 181.661 M100.654 152.870 C 100.600 164.431,100.670 174.222,100.810 174.630 C 100.950 175.037,101.075 165.579,101.088 153.611 C 101.101 141.644,101.030 131.852,100.932 131.852 C 100.833 131.852,100.708 141.310,100.654 152.870 M51.902 149.113 C 23.470 153.880,7.110 185.982,19.813 212.085 C 29.980 232.978,54.994 242.934,75.872 234.396 L 78.924 233.148 78.999 218.963 L 79.074 204.778 77.982 206.185 C 73.877 211.477,69.069 214.233,62.037 215.324 C 59.704 215.686,59.148 215.858,60.185 215.895 C 62.826 215.990,60.691 216.677,57.708 216.691 C 40.205 216.779,27.943 191.692,40.046 180.556 L 41.254 179.444 40.597 180.495 C 40.236 181.073,40.018 181.623,40.113 181.718 C 40.208 181.813,40.639 181.319,41.072 180.620 C 42.323 178.594,47.027 174.365,49.447 173.088 C 66.503 164.092,86.721 179.834,81.870 198.333 C 81.071 201.381,81.148 201.934,82.011 199.337 C 83.943 193.522,82.816 183.927,79.855 180.966 C 79.089 180.200,79.074 179.929,79.074 166.394 L 79.074 152.602 77.971 152.217 C 77.100 151.913,76.964 151.927,77.323 152.286 C 78.478 153.441,76.624 153.742,74.312 152.776 C 72.087 151.846,65.951 150.441,62.222 150.006 C 60.287 149.781,58.370 149.533,57.963 149.456 C 57.556 149.379,56.972 149.275,56.667 149.225 C 56.361 149.176,57.111 149.024,58.333 148.889 L 60.556 148.643 57.778 148.618 C 56.250 148.605,53.606 148.828,51.902 149.113 M233.851 149.058 C 230.624 149.559,226.621 150.681,223.909 151.843 L 222.222 152.566 222.222 165.126 C 222.222 172.033,222.328 178.214,222.457 178.861 L 222.692 180.036 224.509 177.998 C 238.260 162.569,263.528 172.262,263.516 192.963 C 263.510 204.667,255.632 213.404,243.333 215.345 C 241.075 215.701,240.604 215.855,241.667 215.890 C 244.503 215.981,242.169 216.655,238.996 216.661 C 233.704 216.671,228.063 214.266,224.274 210.385 C 223.470 209.562,222.680 208.889,222.517 208.889 C 222.355 208.889,222.222 214.306,222.222 220.926 C 222.222 227.546,222.087 232.963,221.921 232.963 C 221.755 232.963,220.464 232.269,219.051 231.422 C 211.657 226.987,205.003 219.787,201.829 212.787 L 200.720 210.340 200.823 193.040 C 200.880 183.526,201.062 175.407,201.227 175.000 C 201.393 174.593,201.272 174.700,200.958 175.238 C 200.457 176.099,200.357 181.780,200.133 222.183 L 199.878 268.148 211.091 268.148 L 222.305 268.148 222.045 266.759 C 221.902 265.995,221.668 265.204,221.525 265.000 C 220.686 263.808,221.525 234.939,222.444 233.404 C 222.482 233.342,223.496 233.704,224.699 234.210 C 243.680 242.199,268.414 234.250,278.708 216.852 L 279.365 215.741 278.359 216.852 C 277.806 217.463,277.486 217.713,277.648 217.407 C 277.810 217.102,277.974 216.685,278.014 216.481 C 278.053 216.278,278.767 214.499,279.599 212.528 C 288.236 192.093,282.573 170.190,265.516 158.059 C 258.826 153.300,253.264 151.315,242.436 149.818 C 240.210 149.511,238.294 149.231,238.176 149.197 C 238.059 149.163,238.963 149.024,240.185 148.889 L 242.407 148.643 239.630 148.617 C 238.102 148.603,235.502 148.802,233.851 149.058 M332.415 148.931 C 329.213 149.398,324.782 150.601,322.419 151.646 L 320.370 152.552 320.370 166.462 L 320.370 180.373 322.923 177.686 C 337.042 162.822,361.528 172.498,361.582 192.963 C 361.611 204.207,353.766 213.162,342.108 215.192 C 339.930 215.571,338.882 215.870,339.630 215.899 C 340.758 215.942,340.835 216.001,340.227 216.355 C 336.810 218.339,327.097 215.090,322.083 210.286 L 320.370 208.645 320.370 220.804 C 320.370 227.883,320.229 232.963,320.033 232.963 C 319.306 232.963,314.479 229.911,311.626 227.648 C 306.618 223.676,301.795 217.495,299.570 212.199 L 298.537 209.741 298.722 192.792 C 298.830 182.869,299.057 175.564,299.268 175.168 C 299.467 174.797,299.623 174.357,299.614 174.191 C 299.606 174.025,299.279 174.472,298.889 175.185 C 298.201 176.442,298.179 177.863,298.164 222.315 L 298.148 268.148 309.074 268.148 L 320.000 268.148 320.000 250.698 C 320.000 234.247,320.037 233.259,320.648 233.451 C 321.005 233.563,322.463 234.097,323.889 234.638 C 342.003 241.502,363.636 235.002,375.070 219.259 C 376.788 216.894,378.291 214.444,378.023 214.444 C 377.922 214.444,377.472 215.037,377.025 215.760 C 375.666 217.960,375.749 216.875,377.198 213.502 C 389.993 183.717,373.336 153.801,341.852 150.019 C 339.917 149.787,338.000 149.533,337.593 149.456 C 337.185 149.379,336.602 149.275,336.296 149.225 C 335.991 149.176,336.741 149.024,337.963 148.889 L 340.185 148.643 337.407 148.626 C 335.880 148.617,333.633 148.754,332.415 148.931 M167.687 157.068 C 165.755 157.523,162.304 159.360,160.646 160.816 C 159.579 161.752,157.568 165.237,152.034 175.741 C 148.063 183.278,144.584 189.861,144.302 190.370 C 144.020 190.880,143.022 191.878,142.084 192.589 L 140.379 193.881 142.412 195.737 C 144.097 197.275,145.058 198.734,148.022 204.259 C 152.911 213.371,160.125 226.544,161.175 228.275 C 163.717 232.468,166.899 233.477,177.778 233.538 L 186.481 233.588 177.963 233.356 C 163.936 232.975,164.476 233.464,152.102 210.000 C 151.296 208.472,150.100 206.306,149.443 205.185 C 148.785 204.065,147.600 201.899,146.809 200.372 C 145.297 197.455,142.729 194.497,141.596 194.368 C 141.227 194.326,146.412 194.201,153.118 194.091 C 162.396 193.937,165.346 193.778,165.463 193.426 C 165.548 193.171,166.026 192.963,166.525 192.963 C 167.881 192.963,169.212 191.924,170.038 190.221 C 170.443 189.387,170.532 189.005,170.237 189.374 C 168.034 192.126,169.917 187.527,174.682 178.519 C 186.511 156.154,186.285 157.778,177.565 157.778 C 169.255 157.778,169.402 157.254,177.778 157.025 L 185.000 156.828 177.037 156.784 C 172.657 156.761,168.450 156.888,167.687 157.068 M172.037 185.926 C 171.521 186.944,171.182 187.778,171.284 187.778 C 171.386 187.778,171.891 186.944,172.407 185.926 C 172.924 184.907,173.262 184.074,173.161 184.074 C 173.059 184.074,172.553 184.907,172.037 185.926 M319.537 258.056 C 319.477 262.079,319.428 258.787,319.428 250.741 C 319.428 242.694,319.477 239.403,319.537 243.426 C 319.596 247.449,319.596 254.032,319.537 258.056 " stroke="none" fill="#5c8f4a" fill-rule="evenodd"/>
    <path id="path1" d="M99.905 130.489 C 100.159 132.002,100.418 156.040,100.286 165.899 L 100.185 173.465 98.742 171.084 C 95.349 165.487,91.110 160.581,86.993 157.490 C 84.280 155.452,78.837 152.150,78.593 152.394 C 78.484 152.503,78.548 152.593,78.735 152.593 C 78.934 152.594,79.074 158.276,79.074 166.390 C 79.074 179.929,79.089 180.200,79.855 180.966 C 80.974 182.085,82.553 186.469,82.916 189.468 C 83.368 193.198,82.549 199.941,81.779 198.831 C 81.535 198.480,81.497 198.564,81.651 199.114 C 81.921 200.082,81.533 201.187,81.033 200.877 C 80.803 200.735,80.757 200.948,80.912 201.437 C 81.084 201.980,80.981 202.295,80.583 202.448 C 80.265 202.570,80.096 202.819,80.209 203.002 C 80.322 203.184,80.228 203.333,80.000 203.333 C 79.772 203.333,79.678 203.483,79.791 203.665 C 79.904 203.847,79.758 204.088,79.467 204.199 C 78.911 204.413,78.561 232.141,79.108 232.688 C 79.455 233.035,82.337 231.487,85.556 229.224 C 91.331 225.163,96.485 218.996,99.655 212.354 L 101.132 209.259 101.009 191.759 C 100.856 169.909,100.812 132.909,100.937 130.909 C 101.013 129.697,100.904 129.401,100.369 129.361 C 99.824 129.320,99.742 129.520,99.905 130.489 M133.982 130.463 C 134.692 134.645,134.437 193.990,133.708 194.180 C 132.520 194.491,132.542 230.476,133.731 231.987 C 134.646 233.151,135.185 233.238,135.185 232.222 C 135.185 231.815,135.019 231.481,134.815 231.481 C 134.573 231.481,134.444 225.000,134.444 212.778 C 134.444 200.556,134.573 194.074,134.815 194.074 C 135.059 194.074,135.185 183.326,135.185 162.571 C 135.185 141.663,135.061 131.144,134.815 131.296 C 134.611 131.422,134.444 131.182,134.444 130.763 C 134.444 130.343,134.653 129.997,134.907 129.994 C 135.216 129.991,135.185 129.869,134.815 129.630 C 133.912 129.046,133.766 129.193,133.982 130.463 M58.333 148.903 C 57.111 149.030,56.361 149.176,56.667 149.225 C 56.972 149.275,57.556 149.379,57.963 149.456 C 58.370 149.533,60.287 149.781,62.222 150.006 C 65.951 150.441,72.087 151.846,74.312 152.776 C 76.254 153.587,77.746 153.518,77.678 152.618 C 77.648 152.225,77.492 151.985,77.331 152.085 C 77.169 152.184,77.037 152.116,77.037 151.932 C 77.037 151.590,72.022 149.966,68.704 149.234 C 66.484 148.744,61.404 148.582,58.333 148.903 M240.185 148.918 C 238.963 149.037,238.059 149.163,238.176 149.197 C 238.294 149.231,240.210 149.511,242.436 149.818 C 253.264 151.315,258.826 153.300,265.516 158.059 C 282.573 170.190,288.236 192.093,279.599 212.528 C 278.767 214.499,278.053 216.278,278.014 216.481 C 277.974 216.685,277.829 217.032,277.691 217.253 C 277.553 217.474,277.675 217.654,277.963 217.654 C 278.251 217.654,278.404 217.522,278.304 217.359 C 278.203 217.197,278.461 216.725,278.875 216.310 C 279.290 215.895,279.505 215.550,279.352 215.544 C 279.199 215.537,279.366 215.310,279.722 215.040 C 282.352 213.043,285.681 200.407,285.486 193.158 L 285.416 190.556 285.185 193.889 L 284.955 197.222 284.885 193.833 C 284.538 177.042,275.490 161.949,260.833 153.711 C 259.058 152.714,258.951 152.223,260.706 153.130 C 261.336 153.456,261.852 153.626,261.852 153.507 C 261.852 153.090,258.505 151.817,258.087 152.075 C 257.833 152.232,257.764 152.173,257.916 151.928 C 258.245 151.395,253.181 149.789,248.939 149.081 C 245.723 148.544,244.280 148.517,240.185 148.918 M337.963 148.919 C 336.741 149.038,335.991 149.176,336.296 149.225 C 336.602 149.275,337.185 149.379,337.593 149.456 C 338.000 149.533,339.917 149.787,341.852 150.019 C 373.427 153.812,390.277 184.379,377.047 213.867 C 375.770 216.713,375.730 216.914,376.446 216.914 C 376.756 216.914,376.880 216.689,376.754 216.359 C 376.604 215.969,376.686 215.894,377.031 216.108 C 377.352 216.306,377.433 216.267,377.266 215.997 C 377.125 215.769,377.336 215.257,377.733 214.859 C 378.131 214.461,378.360 214.039,378.241 213.920 C 378.122 213.801,378.247 213.704,378.519 213.704 C 378.790 213.704,378.909 213.601,378.783 213.474 C 378.657 213.348,378.784 213.015,379.064 212.734 C 380.687 211.112,383.095 202.064,383.094 197.593 C 383.090 177.598,374.452 162.360,357.963 153.258 C 355.477 151.885,356.133 151.942,358.899 153.339 C 360.116 153.953,361.111 154.371,361.111 154.269 C 361.111 153.893,355.852 151.450,353.127 150.560 C 347.846 148.836,343.579 148.375,337.963 148.919 M318.147 153.660 C 311.692 157.315,301.870 166.680,302.842 168.252 C 302.971 168.461,302.916 168.533,302.718 168.411 C 302.520 168.288,302.054 168.704,301.681 169.334 C 301.309 169.964,301.212 170.352,301.465 170.195 C 301.825 169.973,301.834 170.082,301.505 170.696 C 301.274 171.128,300.914 171.481,300.706 171.481 C 300.497 171.481,300.419 171.631,300.532 171.813 C 300.644 171.995,300.470 172.247,300.145 172.372 C 299.807 172.501,299.644 172.836,299.765 173.151 C 299.881 173.455,299.805 173.704,299.596 173.704 C 299.387 173.704,299.309 173.855,299.424 174.041 C 299.680 174.455,299.273 175.608,298.943 175.405 C 298.811 175.324,298.704 183.200,298.704 192.907 L 298.704 210.556 299.697 212.673 C 302.199 218.011,306.872 223.877,311.626 227.648 C 314.479 229.911,319.306 232.963,320.033 232.963 C 320.229 232.963,320.370 227.883,320.370 220.804 L 320.370 208.645 322.083 210.286 C 327.097 215.090,336.810 218.339,340.227 216.355 C 340.836 216.001,340.759 215.941,339.630 215.888 L 338.333 215.828 339.630 215.556 C 340.683 215.334,340.438 215.274,338.319 215.234 C 336.885 215.207,334.718 214.912,333.504 214.578 C 332.290 214.244,330.796 213.937,330.185 213.897 C 323.766 213.476,315.783 202.511,315.984 194.391 L 316.042 192.037 316.296 193.889 C 316.540 195.667,316.553 195.631,316.614 192.963 C 316.697 189.335,317.484 186.097,318.978 183.237 L 320.185 180.926 320.370 166.574 C 320.472 158.680,320.556 152.238,320.556 152.259 C 320.556 152.279,319.472 152.909,318.147 153.660 M219.000 154.377 C 211.972 158.602,206.970 163.702,202.856 170.838 C 200.917 174.202,201.023 173.013,200.860 193.040 L 200.720 210.340 201.829 212.787 C 205.003 219.787,211.657 226.987,219.051 231.422 C 220.464 232.269,221.755 232.963,221.921 232.963 C 222.087 232.963,222.222 227.546,222.222 220.926 C 222.222 214.306,222.355 208.889,222.517 208.889 C 222.680 208.889,223.470 209.562,224.274 210.385 C 228.063 214.266,233.704 216.671,238.996 216.661 C 242.191 216.655,244.466 215.989,241.667 215.879 L 240.185 215.821 241.667 215.556 C 242.914 215.332,242.707 215.282,240.356 215.238 C 237.125 215.177,234.133 214.476,231.383 213.135 C 229.604 212.268,229.596 212.413,231.357 213.611 C 231.756 213.883,231.425 213.840,230.556 213.506 C 225.592 211.605,221.031 206.487,219.123 200.677 C 218.219 197.925,217.605 193.333,218.141 193.333 C 218.302 193.333,218.545 192.375,218.681 191.204 C 219.128 187.367,221.346 181.326,222.590 180.557 C 222.802 180.426,222.847 180.122,222.691 179.882 C 222.535 179.641,222.324 173.394,222.222 165.998 L 222.037 152.551 219.000 154.377 M177.778 157.025 C 169.402 157.254,169.255 157.778,177.565 157.778 C 186.285 157.778,186.511 156.154,174.682 178.519 C 169.822 187.708,169.143 189.302,169.810 189.962 C 170.361 190.507,170.390 190.503,170.167 189.911 C 170.010 189.495,170.134 189.185,170.515 189.038 C 170.841 188.913,171.015 188.662,170.902 188.480 C 170.789 188.297,170.874 188.148,171.089 188.148 C 171.305 188.148,171.442 188.023,171.393 187.870 C 171.229 187.350,172.307 185.194,172.631 185.394 C 172.809 185.504,172.856 185.337,172.735 185.022 C 172.606 184.686,172.759 184.357,173.108 184.224 C 173.433 184.099,173.607 183.847,173.495 183.665 C 173.382 183.483,173.476 183.333,173.704 183.333 C 173.931 183.333,174.015 183.167,173.889 182.963 C 173.763 182.759,173.846 182.593,174.074 182.593 C 174.302 182.593,174.385 182.426,174.259 182.222 C 174.133 182.019,174.217 181.852,174.444 181.852 C 174.672 181.852,174.756 181.685,174.630 181.481 C 174.504 181.278,174.587 181.111,174.815 181.111 C 175.043 181.111,175.126 180.944,175.000 180.741 C 174.874 180.537,174.957 180.370,175.185 180.370 C 175.413 180.370,175.496 180.204,175.370 180.000 C 175.244 179.796,175.305 179.630,175.505 179.630 C 175.705 179.630,176.061 179.046,176.296 178.333 C 176.532 177.620,176.888 177.037,177.088 177.037 C 177.288 177.037,177.357 176.885,177.242 176.698 C 177.127 176.512,177.174 176.304,177.347 176.235 C 177.519 176.167,179.159 173.160,180.990 169.554 C 182.822 165.947,184.165 163.092,183.975 163.209 C 183.785 163.327,183.819 163.069,184.050 162.637 C 184.281 162.205,184.641 161.852,184.850 161.852 C 185.058 161.852,185.126 161.685,185.000 161.481 C 184.874 161.278,184.957 161.111,185.185 161.111 C 185.413 161.111,185.496 160.944,185.370 160.741 C 185.244 160.537,185.328 160.370,185.556 160.370 C 185.783 160.370,185.867 160.204,185.741 160.000 C 185.615 159.796,185.657 159.630,185.835 159.630 C 186.113 159.630,187.407 157.333,187.407 156.839 C 187.407 156.744,186.866 156.703,186.204 156.747 C 185.542 156.791,181.750 156.916,177.778 157.025 M186.795 157.608 C 186.552 158.240,185.869 158.163,185.640 157.477 C 185.559 157.233,185.832 157.037,186.254 157.037 C 186.786 157.037,186.948 157.208,186.795 157.608 M100.648 199.327 C 100.589 203.873,100.541 200.259,100.540 191.296 C 100.540 182.333,100.589 178.614,100.648 183.030 C 100.707 187.447,100.707 194.780,100.648 199.327 M200.170 192.778 C 200.171 201.944,200.219 205.641,200.277 200.993 C 200.336 196.345,200.336 188.845,200.277 184.327 C 200.218 179.808,200.170 183.611,200.170 192.778 M39.751 180.833 C 28.367 192.901,40.325 216.778,57.708 216.691 C 60.711 216.676,62.797 215.997,60.185 215.885 L 58.704 215.821 60.185 215.556 C 61.483 215.323,61.344 215.283,59.074 215.232 C 57.648 215.200,55.481 214.911,54.259 214.590 C 53.037 214.268,51.678 213.979,51.239 213.947 C 50.800 213.915,50.503 213.788,50.579 213.665 C 50.655 213.542,50.264 213.248,49.711 213.011 C 48.743 212.597,48.732 212.604,49.444 213.192 L 50.185 213.803 49.444 213.550 C 44.493 211.859,38.738 205.203,37.234 199.429 C 36.648 197.181,36.447 191.481,36.953 191.481 C 37.110 191.481,37.451 190.356,37.711 188.981 C 37.971 187.606,38.577 185.619,39.058 184.565 C 39.539 183.511,39.837 182.553,39.720 182.436 C 39.602 182.318,39.682 182.222,39.897 182.222 C 40.112 182.222,40.265 181.931,40.237 181.574 C 40.208 181.218,40.358 180.956,40.569 180.992 C 40.780 181.028,40.952 180.737,40.952 180.344 C 40.952 179.468,41.093 179.410,39.751 180.833 M165.463 193.426 C 165.265 194.022,140.944 194.470,140.276 193.889 C 140.028 193.673,140.041 193.772,140.309 194.128 C 140.573 194.479,141.070 194.659,141.478 194.553 C 142.535 194.276,145.103 197.080,146.809 200.372 C 147.600 201.899,148.785 204.065,149.443 205.185 C 150.100 206.306,151.296 208.472,152.102 210.000 C 161.833 228.452,163.597 230.952,167.901 232.400 C 169.293 232.868,170.249 233.311,170.027 233.385 C 169.804 233.458,173.332 233.509,177.867 233.497 L 186.111 233.476 179.444 233.701 L 172.778 233.926 181.204 233.975 C 185.838 234.001,189.626 233.909,189.621 233.771 C 189.606 233.313,188.345 231.963,187.734 231.751 C 187.120 231.537,185.028 227.826,176.934 212.593 C 169.567 198.726,168.604 197.072,167.236 195.937 C 166.797 195.573,166.751 195.362,167.068 195.166 C 167.359 194.986,167.241 194.812,166.716 194.645 C 165.757 194.341,165.705 193.869,166.574 193.363 C 167.158 193.023,167.143 192.984,166.420 192.974 C 165.978 192.968,165.548 193.171,165.463 193.426 M142.963 196.481 C 143.654 197.194,144.303 197.778,144.405 197.778 C 144.506 197.778,144.024 197.194,143.333 196.481 C 142.642 195.769,141.994 195.185,141.892 195.185 C 141.790 195.185,142.272 195.769,142.963 196.481 M272.393 224.537 L 270.556 226.481 272.500 224.644 C 273.569 223.633,274.444 222.758,274.444 222.699 C 274.444 222.423,274.101 222.730,272.393 224.537 M221.449 236.574 C 221.252 238.279,221.369 264.930,221.574 265.057 C 221.727 265.152,221.852 258.719,221.852 250.763 C 221.852 238.957,221.718 234.250,221.449 236.574 M319.428 250.741 C 319.428 258.787,319.477 262.079,319.537 258.056 C 319.596 254.032,319.596 247.449,319.537 243.426 C 319.477 239.403,319.428 242.694,319.428 250.741 " stroke="none" fill="#83c34f" fill-rule="evenodd"/>
    <path id="path2" d="M75.559 118.948 C 70.546 120.418,68.148 125.167,68.148 133.629 L 68.148 138.031 66.389 137.741 C 55.725 135.986,40.422 139.479,30.741 145.877 C 29.009 147.022,27.390 148.043,27.143 148.146 C 24.894 149.085,18.760 155.528,14.095 161.852 C 1.125 179.431,1.457 206.838,14.858 224.868 C 23.855 236.973,34.231 243.862,48.061 246.913 C 49.744 247.284,51.059 247.756,50.984 247.961 C 48.867 253.721,50.814 260.297,55.544 263.362 C 57.220 264.448,57.430 264.724,57.333 265.715 C 57.215 266.916,57.292 266.874,53.239 267.966 C 47.531 269.504,43.837 276.428,45.335 282.782 C 48.619 296.712,66.020 301.635,77.196 291.797 L 78.938 290.264 82.553 291.084 L 86.169 291.904 89.658 291.090 C 91.578 290.643,93.778 289.959,94.547 289.570 C 95.804 288.935,96.168 288.910,98.143 289.318 C 101.309 289.972,108.592 288.436,110.887 286.631 C 111.864 285.863,111.913 285.861,114.478 286.490 C 119.220 287.652,129.183 285.317,134.344 281.833 L 135.911 280.776 137.493 281.466 C 141.777 283.334,149.045 283.233,153.228 281.246 C 154.900 280.452,155.348 280.381,156.561 280.718 C 159.251 281.465,165.134 280.633,168.133 279.082 C 168.889 278.691,169.477 278.671,170.867 278.989 C 173.962 279.698,180.875 277.688,184.384 275.059 C 187.461 272.753,189.131 268.356,188.473 264.290 C 188.199 262.595,188.227 262.032,188.596 261.802 C 188.972 261.569,189.124 262.436,189.308 265.845 C 189.938 277.510,192.814 279.259,211.358 279.259 C 231.726 279.259,233.333 277.686,233.333 257.753 L 233.333 247.695 234.537 247.904 C 252.044 250.946,275.283 241.023,285.574 226.111 L 286.852 224.259 287.055 246.852 C 287.352 279.892,286.913 279.247,309.074 279.247 C 329.641 279.247,331.111 277.828,331.111 257.984 L 331.111 247.741 333.426 248.037 C 359.798 251.411,385.967 233.240,393.027 206.650 L 394.252 202.037 394.256 192.963 L 394.259 183.889 393.026 179.074 C 390.586 169.543,387.273 163.565,379.580 154.815 C 377.629 152.596,373.136 148.587,372.105 148.146 C 371.864 148.043,370.250 147.022,368.519 145.877 C 343.116 129.087,306.988 138.153,291.545 165.193 C 290.555 166.928,290.420 167.037,290.185 166.296 C 289.689 164.732,282.309 155.361,279.350 152.537 C 256.978 131.184,220.179 132.842,200.028 156.111 C 199.051 157.239,198.520 157.652,198.670 157.166 C 199.242 155.309,196.407 148.148,195.099 148.148 C 194.926 148.148,194.324 147.807,193.760 147.391 C 191.261 145.543,173.584 144.693,167.407 146.124 C 156.635 148.619,152.257 151.820,147.704 160.527 L 146.333 163.148 146.301 145.926 C 146.250 117.832,146.726 118.399,123.333 118.592 C 111.281 118.692,109.672 118.775,108.498 119.360 C 107.239 119.987,107.127 119.987,105.906 119.360 C 104.396 118.584,78.022 118.226,75.559 118.948 M99.589 129.135 L 101.586 129.375 101.392 169.416 L 101.197 209.456 100.066 211.951 C 84.907 245.384,36.851 245.992,20.034 212.964 C 1.074 175.726,39.508 135.487,78.241 152.025 C 78.850 152.285,78.889 151.614,78.889 140.842 C 78.889 134.539,79.000 129.272,79.136 129.136 C 79.453 128.819,96.951 128.818,99.589 129.135 M133.612 129.129 L 135.558 129.363 135.464 181.811 L 135.370 234.259 124.259 234.259 L 113.148 234.259 113.053 182.037 C 113.001 153.315,113.037 129.606,113.134 129.352 C 113.325 128.849,129.791 128.670,133.612 129.129 M248.063 148.727 C 290.155 154.977,299.854 210.887,262.562 232.316 C 255.108 236.600,240.475 238.728,232.222 236.729 C 229.429 236.052,224.476 234.453,223.241 233.829 L 222.222 233.314 222.222 250.737 L 222.222 268.159 211.019 268.061 L 199.815 267.963 199.915 222.055 L 200.015 176.147 201.660 172.858 C 210.392 155.389,228.725 145.856,248.063 148.727 M345.066 148.543 C 384.761 153.951,397.965 204.669,365.945 228.738 C 353.838 237.839,335.289 240.204,322.379 234.294 L 320.370 233.374 320.370 250.761 L 320.370 268.148 309.074 268.148 L 297.778 268.148 297.778 222.467 L 297.778 176.786 299.590 173.115 C 308.180 155.719,326.213 145.974,345.066 148.543 M187.778 156.516 C 187.778 156.823,183.189 165.891,178.893 174.074 C 176.915 177.843,174.109 183.270,172.658 186.134 C 170.072 191.239,168.578 193.048,166.371 193.748 C 166.107 193.832,166.772 194.481,167.850 195.191 C 169.766 196.453,169.943 196.731,175.759 207.593 C 179.032 213.704,183.450 221.954,185.577 225.926 C 187.704 229.898,189.498 233.356,189.564 233.611 C 189.744 234.307,172.540 234.246,169.206 233.540 C 163.391 232.307,162.187 231.042,156.134 219.815 C 143.841 197.010,143.739 196.843,140.741 194.685 L 139.815 194.019 140.741 193.398 C 143.497 191.551,144.359 190.091,156.701 166.362 C 159.523 160.937,162.138 158.554,166.962 157.011 C 169.047 156.345,187.778 155.899,187.778 156.516 M54.145 171.468 C 37.792 175.888,32.297 196.373,44.251 208.347 C 58.875 222.995,83.259 212.016,82.121 191.296 C 81.370 177.639,67.551 167.845,54.145 171.468 M236.028 171.276 C 226.832 173.372,219.667 181.887,219.026 191.481 C 217.662 211.888,242.266 222.847,256.891 208.347 C 272.654 192.720,257.794 166.316,236.028 171.276 M333.462 171.476 C 317.034 175.783,311.484 195.857,323.286 208.287 C 333.688 219.241,352.421 216.362,359.103 202.781 C 367.519 185.675,351.925 166.636,333.462 171.476 M189.089 239.847 C 191.427 240.956,192.335 243.592,191.283 246.220 C 190.172 248.999,185.185 252.832,185.185 250.908 C 185.185 249.800,184.051 248.157,183.126 247.924 C 180.342 247.225,177.782 253.848,177.602 262.218 L 177.502 266.843 175.905 267.539 C 172.479 269.033,169.360 268.254,168.264 265.631 C 167.497 263.795,167.809 261.362,169.867 253.148 C 170.786 249.481,171.631 245.372,171.746 244.015 C 171.929 241.842,172.052 241.530,172.775 241.391 C 174.324 241.095,178.233 241.771,179.215 242.504 L 180.181 243.225 181.479 241.778 C 183.535 239.487,186.660 238.694,189.089 239.847 M120.384 240.463 C 122.796 241.680,123.154 244.578,121.603 250.342 L 121.361 251.241 122.625 250.286 C 132.699 242.680,141.562 253.272,135.247 265.370 C 130.403 274.651,117.057 279.493,111.861 273.856 C 108.744 270.474,108.599 266.889,111.129 255.741 C 113.035 247.339,113.703 243.618,113.703 241.389 L 113.704 239.630 116.218 239.630 C 118.089 239.630,119.155 239.843,120.384 240.463 M164.896 243.720 C 167.897 244.553,168.099 246.948,165.926 255.926 C 164.422 262.140,164.033 266.317,164.822 267.791 C 165.408 268.885,162.730 270.139,159.753 270.165 C 157.020 270.189,155.811 269.316,155.074 266.789 L 154.613 265.208 152.892 267.533 C 150.238 271.119,148.667 272.037,145.188 272.037 C 133.828 272.037,135.965 251.595,147.937 245.737 C 151.132 244.174,155.192 243.996,157.146 245.334 C 158.931 246.556,158.889 246.569,158.889 244.815 L 158.889 243.333 161.204 243.335 C 162.477 243.337,164.139 243.510,164.896 243.720 M78.451 250.000 C 79.136 274.690,70.167 291.390,59.607 285.087 C 56.120 283.005,54.599 280.182,56.136 278.645 L 57.086 277.695 57.934 278.492 C 62.834 283.094,67.324 275.196,68.868 259.259 C 69.094 256.917,69.356 254.292,69.448 253.426 C 69.650 251.528,69.815 251.537,65.213 253.174 C 60.546 254.834,60.108 254.604,61.173 251.052 C 62.353 247.114,66.409 245.514,74.815 245.674 L 78.333 245.741 78.451 250.000 M152.037 250.325 C 147.014 253.455,144.676 264.444,149.033 264.444 C 152.285 264.444,158.724 252.205,156.593 250.074 C 155.919 249.400,153.289 249.545,152.037 250.325 M105.370 252.212 C 108.983 253.046,109.253 255.318,106.846 264.630 C 105.496 269.857,105.044 274.340,105.669 276.311 C 105.935 277.149,105.815 277.323,104.562 277.920 C 100.103 280.047,95.932 278.370,95.927 274.449 L 95.926 273.158 94.681 275.005 C 88.245 284.551,78.650 282.092,78.761 270.926 C 78.850 261.982,85.837 253.701,93.836 253.059 C 96.227 252.867,98.924 253.761,99.381 254.898 C 99.486 255.158,99.584 254.690,99.600 253.858 C 99.642 251.718,101.248 251.260,105.370 252.212 M124.101 255.020 C 117.856 260.661,116.827 273.739,122.958 269.537 C 125.576 267.743,128.148 261.751,128.148 257.448 C 128.148 253.474,126.744 252.632,124.101 255.020 M92.954 258.998 C 87.858 261.693,85.717 272.963,90.300 272.963 C 92.504 272.963,98.147 263.723,98.148 260.114 C 98.148 258.195,95.534 257.633,92.954 258.998 " stroke="none" fill="#fbfbfb" fill-rule="evenodd"/>
    <path id="path3" d="M113.945 242.438 C 113.811 244.032,112.850 249.094,111.812 253.687 C 109.079 265.767,108.994 269.406,111.360 273.085 C 115.638 279.740,130.538 274.551,135.368 264.724 C 136.950 261.504,137.613 256.881,136.657 255.729 C 136.395 255.413,135.791 254.315,135.315 253.288 C 134.840 252.261,134.118 250.998,133.712 250.482 C 133.305 249.965,133.064 249.395,133.175 249.215 C 134.451 247.152,125.913 248.133,122.804 250.408 C 120.971 251.748,121.025 251.872,121.707 247.888 L 122.283 244.522 121.134 242.936 C 120.292 241.774,120.107 241.274,120.443 241.066 C 121.115 240.651,119.345 240.067,116.544 239.780 L 114.190 239.539 113.945 242.438 M183.882 240.146 C 183.267 240.414,182.227 241.245,181.570 241.992 L 180.377 243.352 178.816 242.555 C 177.710 241.991,176.512 241.745,174.707 241.713 L 172.159 241.667 172.001 243.889 C 171.914 245.111,171.061 249.194,170.106 252.963 C 167.085 264.883,167.766 268.524,172.928 268.050 C 175.541 267.810,177.889 266.747,177.578 265.945 C 176.300 262.651,177.992 252.918,180.489 249.201 C 182.027 246.910,184.431 247.336,185.242 250.044 C 185.759 251.769,185.760 251.769,187.647 250.381 C 189.716 248.859,191.142 246.679,191.330 244.749 C 191.416 243.869,191.383 243.372,191.256 243.646 C 191.102 243.980,190.678 243.617,189.959 242.534 C 188.807 240.798,188.620 240.191,189.352 240.561 C 189.606 240.690,189.491 240.533,189.096 240.213 C 188.219 239.502,185.442 239.466,183.882 240.146 M159.537 243.589 C 159.059 243.714,158.889 244.139,158.889 245.212 C 158.889 246.832,158.576 247.013,157.613 245.949 C 153.962 241.915,143.853 246.647,140.049 254.171 C 132.779 268.550,146.341 279.972,153.881 265.819 C 154.769 264.151,155.185 264.071,155.185 265.567 C 155.185 269.597,158.719 271.257,163.138 269.302 C 164.714 268.605,164.791 268.504,164.443 267.590 C 163.744 265.751,164.071 262.429,165.556 256.296 C 167.295 249.111,167.342 248.260,166.102 246.433 C 165.485 245.524,165.305 244.970,165.571 244.805 C 166.500 244.231,161.182 243.159,159.537 243.589 M72.222 245.933 C 63.449 246.762,61.111 248.199,61.111 252.766 C 61.111 254.384,61.144 254.385,65.751 252.818 L 69.444 251.562 69.559 253.228 C 69.878 257.864,67.563 271.059,65.704 275.201 C 63.877 279.272,60.563 280.868,58.046 278.888 C 56.026 277.299,54.844 279.444,56.424 281.832 C 61.913 290.126,71.251 286.439,75.132 274.444 C 77.509 267.095,79.045 250.689,77.593 248.148 C 76.885 246.911,76.906 246.296,77.654 246.296 C 78.713 246.296,78.032 246.037,76.481 245.850 C 75.667 245.751,73.750 245.789,72.222 245.933 M156.885 250.027 C 159.405 252.119,151.809 265.510,148.615 264.608 C 148.053 264.450,147.454 264.306,147.285 264.289 C 146.775 264.239,145.951 262.471,145.976 261.481 L 146.000 260.556 146.296 261.481 C 146.517 262.171,146.602 261.820,146.630 260.106 C 146.739 253.317,153.198 246.968,156.885 250.027 M100.000 253.682 C 100.000 254.485,99.833 255.244,99.630 255.370 C 99.426 255.496,99.259 255.420,99.259 255.202 C 99.259 253.034,92.894 252.676,89.000 254.625 C 77.533 260.361,74.985 279.641,85.558 280.657 C 88.873 280.976,93.505 277.711,95.294 273.796 C 95.889 272.494,96.296 272.812,96.296 274.580 C 96.296 278.496,100.347 279.903,104.879 277.559 C 105.827 277.069,105.911 276.910,105.489 276.401 C 104.621 275.353,104.993 270.978,106.444 265.185 C 107.992 259.002,108.455 255.926,107.838 255.926 C 107.164 255.926,106.140 253.659,106.667 253.333 C 107.413 252.872,104.887 252.222,102.352 252.222 L 100.000 252.222 100.000 253.682 M127.551 254.028 C 130.481 257.265,125.910 269.431,121.333 270.579 C 115.499 272.044,119.482 256.171,125.556 253.749 C 126.827 253.242,126.842 253.245,127.551 254.028 M98.008 259.091 C 98.800 260.300,98.447 261.559,95.876 266.695 C 92.953 272.533,90.625 274.397,88.614 272.509 C 87.798 271.742,87.753 271.735,87.966 272.416 C 88.093 272.822,87.937 272.703,87.615 272.149 C 86.413 270.083,88.233 263.203,90.669 260.601 C 93.140 257.962,96.778 257.214,98.008 259.091 " stroke="none" fill="#073496" fill-rule="evenodd"/>
    <path id="path4" d="M79.057 129.356 C 78.958 129.612,78.924 134.904,78.982 141.115 L 79.085 152.407 79.172 140.839 L 79.259 129.271 89.167 129.166 L 99.074 129.061 89.155 128.975 C 81.454 128.908,79.196 128.993,79.057 129.356 M113.134 129.352 C 113.037 129.606,113.001 153.315,113.053 182.037 L 113.148 234.259 124.259 234.259 L 135.370 234.259 135.464 181.759 C 135.553 131.929,135.525 129.260,134.909 129.265 C 134.354 129.270,134.340 129.323,134.815 129.630 C 135.185 129.869,135.216 129.991,134.907 129.994 C 134.653 129.997,134.444 130.343,134.444 130.763 C 134.444 131.182,134.611 131.422,134.815 131.296 C 135.061 131.144,135.185 141.663,135.185 162.571 C 135.185 183.326,135.059 194.074,134.815 194.074 C 134.573 194.074,134.444 200.556,134.444 212.778 C 134.444 225.000,134.573 231.481,134.815 231.481 C 135.019 231.481,135.185 232.065,135.185 232.778 L 135.185 234.074 124.259 234.074 L 113.333 234.074 113.333 181.673 L 113.333 129.271 123.241 129.166 L 133.148 129.061 123.229 128.975 C 115.570 128.909,113.270 128.994,113.134 129.352 M101.288 159.074 C 101.288 175.574,101.333 182.378,101.389 174.194 C 101.444 166.010,101.444 152.510,101.389 144.194 C 101.333 135.878,101.288 142.574,101.288 159.074 M57.884 148.422 C 59.063 148.496,60.896 148.495,61.958 148.421 C 63.020 148.346,62.056 148.286,59.815 148.287 C 57.574 148.288,56.705 148.349,57.884 148.422 M239.365 148.422 C 240.544 148.496,242.377 148.495,243.439 148.421 C 244.501 148.346,243.537 148.286,241.296 148.287 C 239.056 148.288,238.187 148.349,239.365 148.422 M337.130 148.422 C 338.301 148.495,340.218 148.495,341.389 148.422 C 342.560 148.348,341.602 148.288,339.259 148.288 C 336.917 148.288,335.958 148.348,337.130 148.422 M257.687 151.357 C 257.943 151.460,258.060 151.695,257.946 151.879 C 257.832 152.063,258.025 152.104,258.375 151.970 C 258.803 151.805,258.924 151.866,258.745 152.155 C 258.568 152.442,258.685 152.505,259.098 152.347 C 259.739 152.101,258.493 151.114,257.593 151.153 C 257.389 151.162,257.432 151.254,257.687 151.357 M356.757 152.157 C 356.436 152.362,356.696 152.646,357.601 153.078 C 366.159 157.159,375.315 166.967,379.294 176.319 C 382.065 182.830,383.716 194.320,382.883 201.296 C 382.704 202.796,382.726 203.177,382.952 202.466 C 385.553 194.296,383.325 179.605,378.140 170.727 C 374.573 164.620,364.511 154.414,362.985 155.356 C 362.798 155.473,362.523 155.373,362.376 155.134 C 362.208 154.863,362.268 154.800,362.535 154.965 C 362.771 155.110,362.963 155.144,362.963 155.040 C 362.963 154.841,358.732 152.412,357.778 152.063 C 357.472 151.951,357.013 151.993,356.757 152.157 M259.720 152.529 C 259.400 152.732,259.745 153.099,260.827 153.707 C 270.750 159.285,278.899 168.967,282.455 179.404 C 284.483 185.356,285.654 197.446,284.661 202.170 C 283.755 206.479,283.703 206.889,284.279 205.185 C 288.077 193.950,285.483 178.259,278.043 167.468 C 274.638 162.529,265.627 154.269,264.443 155.001 C 264.230 155.132,264.102 155.020,264.157 154.750 C 264.214 154.478,263.971 154.282,263.615 154.310 C 263.261 154.338,263.055 154.225,263.158 154.059 C 263.373 153.710,261.908 153.141,261.167 153.285 C 260.891 153.339,260.775 153.207,260.908 152.992 C 261.060 152.746,260.913 152.692,260.514 152.845 C 260.083 153.010,259.965 152.950,260.146 152.656 C 260.459 152.150,260.362 152.121,259.720 152.529 M359.272 153.154 C 360.283 153.667,361.111 154.170,361.111 154.272 C 361.111 154.438,357.446 152.707,357.068 152.363 C 356.631 151.965,357.637 152.326,359.272 153.154 M169.541 156.558 C 170.002 156.647,170.669 156.643,171.023 156.551 C 171.377 156.458,171.000 156.386,170.185 156.390 C 169.370 156.394,169.081 156.470,169.541 156.558 M174.630 156.552 C 180.964 156.817,187.779 156.828,187.778 156.574 C 187.778 156.421,184.236 156.329,179.907 156.370 C 175.579 156.410,173.204 156.492,174.630 156.552 M185.556 157.394 C 185.556 157.591,185.885 157.928,186.288 158.144 C 186.904 158.473,186.982 158.436,186.781 157.911 C 186.606 157.455,186.674 157.368,187.031 157.589 C 187.358 157.791,187.433 157.749,187.258 157.465 C 186.938 156.948,185.556 156.891,185.556 157.394 M308.135 161.019 L 306.111 163.148 308.241 161.124 C 309.412 160.010,310.370 159.052,310.370 158.994 C 310.370 158.719,310.016 159.040,308.135 161.019 M182.222 167.037 C 181.403 168.667,180.816 170.000,180.918 170.000 C 181.020 170.000,181.773 168.667,182.593 167.037 C 183.412 165.407,183.999 164.074,183.897 164.074 C 183.795 164.074,183.042 165.407,182.222 167.037 M156.481 166.667 C 156.165 167.278,155.990 167.778,156.092 167.778 C 156.194 167.778,156.536 167.278,156.852 166.667 C 157.168 166.056,157.343 165.556,157.241 165.556 C 157.139 165.556,156.797 166.056,156.481 166.667 M58.981 170.636 C 59.542 170.721,60.458 170.721,61.019 170.636 C 61.579 170.551,61.120 170.481,60.000 170.481 C 58.880 170.481,58.421 170.551,58.981 170.636 M240.463 170.636 C 241.023 170.721,241.940 170.721,242.500 170.636 C 243.060 170.551,242.602 170.481,241.481 170.481 C 240.361 170.481,239.903 170.551,240.463 170.636 M338.241 170.636 C 338.801 170.721,339.718 170.721,340.278 170.636 C 340.838 170.551,340.380 170.481,339.259 170.481 C 338.139 170.481,337.681 170.551,338.241 170.636 M44.061 177.315 L 42.037 179.444 44.167 177.420 C 45.338 176.307,46.296 175.348,46.296 175.290 C 46.296 175.016,45.942 175.336,44.061 177.315 M100.540 191.296 C 100.541 200.259,100.589 203.873,100.648 199.327 C 100.707 194.780,100.707 187.447,100.648 183.030 C 100.589 178.614,100.540 182.333,100.540 191.296 M354.815 177.222 C 355.921 178.343,356.910 179.259,357.012 179.259 C 357.114 179.259,356.292 178.343,355.185 177.222 C 354.079 176.102,353.090 175.185,352.988 175.185 C 352.886 175.185,353.708 176.102,354.815 177.222 M225.347 177.130 L 224.259 178.333 225.463 177.246 C 226.125 176.647,226.667 176.106,226.667 176.042 C 226.667 175.756,226.361 176.008,225.347 177.130 M297.957 222.407 C 297.957 247.667,298.001 257.945,298.056 245.249 C 298.110 232.553,298.110 211.886,298.055 199.323 C 298.001 186.760,297.957 197.148,297.957 222.407 M38.345 186.352 C 38.018 187.442,37.650 189.042,37.528 189.907 C 37.406 190.773,37.163 191.481,36.987 191.481 C 35.653 191.481,37.072 200.233,38.993 203.853 C 41.302 208.203,48.136 214.110,50.129 213.478 C 50.587 213.332,50.746 213.396,50.583 213.660 C 50.422 213.919,50.552 213.981,50.942 213.831 C 51.389 213.660,50.972 213.292,49.387 212.459 C 40.632 207.854,35.941 196.981,38.500 187.222 C 39.307 184.146,39.195 183.519,38.345 186.352 M171.296 188.148 C 170.578 189.574,170.074 190.741,170.176 190.741 C 170.278 190.741,170.949 189.574,171.667 188.148 C 172.385 186.722,172.889 185.556,172.787 185.556 C 172.685 185.556,172.014 186.722,171.296 188.148 M15.317 192.778 C 15.316 194.611,15.378 195.408,15.456 194.548 C 15.534 193.689,15.534 192.189,15.458 191.215 C 15.381 190.241,15.318 190.944,15.317 192.778 M316.760 190.926 C 316.764 191.741,316.840 192.030,316.929 191.570 C 317.017 191.109,317.014 190.442,316.921 190.088 C 316.828 189.734,316.756 190.111,316.760 190.926 M263.458 192.963 C 263.458 194.491,263.523 195.116,263.603 194.352 C 263.683 193.588,263.683 192.338,263.603 191.574 C 263.523 190.810,263.458 191.435,263.458 192.963 M82.333 192.593 C 82.333 193.713,82.403 194.171,82.488 193.611 C 82.572 193.051,82.572 192.134,82.488 191.574 C 82.403 191.014,82.333 191.472,82.333 192.593 M285.456 195.659 C 285.378 196.519,285.316 195.722,285.317 193.889 C 285.318 192.056,285.381 191.352,285.458 192.326 C 285.534 193.300,285.534 194.800,285.456 195.659 M218.561 192.130 C 218.538 192.792,218.368 193.333,218.183 193.333 C 216.923 193.333,219.176 202.081,221.285 205.378 C 224.099 209.776,231.728 215.734,231.728 213.533 C 231.728 213.242,231.497 213.122,231.174 213.246 C 230.816 213.384,230.713 213.307,230.884 213.030 C 231.054 212.756,230.955 212.676,230.612 212.807 C 230.317 212.921,229.949 212.810,229.795 212.561 C 229.602 212.247,229.676 212.199,230.035 212.405 C 230.969 212.937,229.899 212.041,227.847 210.571 C 223.876 207.727,220.383 202.359,219.508 197.757 C 219.278 196.546,219.002 195.556,218.894 195.556 C 218.786 195.556,218.757 194.822,218.828 193.926 C 218.899 193.030,218.878 191.988,218.781 191.611 C 218.679 191.214,218.586 191.431,218.561 192.130 M315.984 194.391 C 315.858 199.479,318.217 204.898,322.392 209.115 C 325.167 211.917,329.206 214.348,330.181 213.802 C 330.562 213.589,330.126 213.202,328.608 212.407 C 324.093 210.043,319.778 204.920,318.107 199.942 C 317.575 198.356,317.075 197.123,316.996 197.203 C 316.917 197.283,316.876 196.403,316.905 195.248 C 316.943 193.733,316.897 193.509,316.739 194.444 C 316.523 195.719,316.516 195.710,316.281 193.889 L 316.042 192.037 315.984 194.391 M167.105 195.143 C 166.735 195.372,166.764 195.545,167.236 195.937 C 168.624 197.089,169.535 198.661,177.429 213.519 C 185.692 229.072,187.134 231.564,188.066 231.901 C 189.019 232.246,189.855 233.905,177.148 210.223 C 169.834 196.592,168.354 194.371,167.105 195.143 M256.838 208.611 L 255.000 210.556 256.944 208.718 C 258.751 207.010,259.059 206.667,258.782 206.667 C 258.724 206.667,257.849 207.542,256.838 208.611 M354.977 208.611 L 353.889 209.815 355.093 208.727 C 355.755 208.129,356.296 207.587,356.296 207.523 C 356.296 207.237,355.991 207.489,354.977 208.611 M199.806 238.519 C 199.806 254.713,199.852 261.338,199.907 253.241 C 199.963 245.144,199.963 231.894,199.907 223.796 C 199.852 215.699,199.806 222.324,199.806 238.519 M233.280 213.936 C 233.964 214.235,235.047 214.560,235.688 214.660 C 236.328 214.759,235.852 214.504,234.630 214.092 C 232.053 213.225,231.504 213.161,233.280 213.936 M56.578 215.077 C 57.039 215.165,57.706 215.162,58.060 215.069 C 58.414 214.977,58.037 214.904,57.222 214.908 C 56.407 214.912,56.118 214.988,56.578 215.077 M61.764 215.077 C 62.224 215.165,62.891 215.162,63.245 215.069 C 63.599 214.977,63.222 214.904,62.407 214.908 C 61.593 214.912,61.303 214.988,61.764 215.077 M237.685 215.076 C 238.144 215.164,238.894 215.164,239.352 215.076 C 239.810 214.988,239.435 214.916,238.519 214.916 C 237.602 214.916,237.227 214.988,237.685 215.076 M243.245 215.077 C 243.706 215.165,244.372 215.162,244.727 215.069 C 245.081 214.977,244.704 214.904,243.889 214.908 C 243.074 214.912,242.784 214.988,243.245 215.077 M335.838 215.077 C 336.298 215.165,336.965 215.162,337.319 215.069 C 337.673 214.977,337.296 214.904,336.481 214.908 C 335.667 214.912,335.377 214.988,335.838 215.077 M341.204 215.070 C 341.560 215.163,342.144 215.163,342.500 215.070 C 342.856 214.977,342.565 214.901,341.852 214.901 C 341.139 214.901,340.847 214.977,341.204 215.070 M28.333 224.444 C 29.748 225.870,30.989 227.037,31.091 227.037 C 31.193 227.037,30.119 225.870,28.704 224.444 C 27.289 223.019,26.048 221.852,25.946 221.852 C 25.844 221.852,26.918 223.019,28.333 224.444 M370.546 224.537 L 367.963 227.222 370.648 224.640 C 373.142 222.241,373.502 221.852,373.231 221.852 C 373.174 221.852,371.966 223.060,370.546 224.537 M320.171 250.741 C 320.171 260.417,320.219 264.375,320.277 259.537 C 320.336 254.699,320.336 246.782,320.277 241.944 C 320.219 237.106,320.171 241.065,320.171 250.741 M222.021 250.926 C 222.021 259.278,222.070 262.747,222.129 258.636 C 222.189 254.525,222.189 247.691,222.129 243.451 C 222.070 239.210,222.021 242.574,222.021 250.926 M186.208 239.521 C 186.669 239.610,187.335 239.606,187.690 239.514 C 188.044 239.421,187.667 239.349,186.852 239.353 C 186.037 239.357,185.747 239.433,186.208 239.521 M113.815 241.481 C 113.815 242.602,113.884 243.060,113.969 242.500 C 114.054 241.940,114.054 241.023,113.969 240.463 C 113.884 239.903,113.815 240.361,113.815 241.481 M188.859 239.867 C 189.056 239.966,189.143 240.245,189.053 240.487 C 188.962 240.728,189.387 241.676,189.998 242.593 C 190.608 243.509,191.128 244.009,191.153 243.704 C 191.178 243.398,191.340 243.648,191.512 244.259 C 191.770 245.174,191.793 245.087,191.645 243.770 C 191.434 241.904,190.477 240.250,189.764 240.524 C 189.491 240.628,189.308 240.533,189.356 240.311 C 189.405 240.089,189.232 239.857,188.972 239.796 C 188.713 239.735,188.661 239.767,188.859 239.867 M120.513 240.672 C 120.641 240.879,120.568 241.107,120.351 241.179 C 120.134 241.252,120.479 242.031,121.117 242.912 L 122.277 244.514 121.842 247.096 C 121.602 248.516,121.482 249.753,121.574 249.845 C 121.789 250.061,122.593 245.217,122.593 243.701 C 122.593 242.268,122.073 241.255,121.058 240.712 C 120.596 240.465,120.375 240.449,120.513 240.672 M181.643 241.574 L 180.556 242.778 181.759 241.690 C 182.881 240.676,183.133 240.370,182.847 240.370 C 182.783 240.370,182.242 240.912,181.643 241.574 M162.134 243.595 C 162.595 243.684,163.261 243.681,163.615 243.588 C 163.970 243.495,163.593 243.423,162.778 243.427 C 161.963 243.431,161.673 243.507,162.134 243.595 M165.149 244.223 C 165.664 244.508,165.849 244.779,165.589 244.865 C 165.284 244.967,165.437 245.453,166.065 246.378 C 166.574 247.128,167.056 248.375,167.137 249.149 C 167.227 250.020,167.307 249.598,167.345 248.039 C 167.412 245.341,166.485 243.686,164.924 243.717 C 164.391 243.727,164.435 243.828,165.149 244.223 M154.105 244.576 C 154.190 244.649,154.843 244.815,155.556 244.946 C 156.468 245.114,156.687 245.076,156.296 244.820 C 155.794 244.491,153.738 244.262,154.105 244.576 M147.685 245.767 C 146.249 246.546,146.412 246.815,147.870 246.074 C 149.266 245.363,149.514 245.179,149.043 245.200 C 148.856 245.208,148.245 245.463,147.685 245.767 M71.944 245.821 C 72.505 245.906,73.421 245.906,73.981 245.821 C 74.542 245.736,74.083 245.667,72.963 245.667 C 71.843 245.667,71.384 245.736,71.944 245.821 M77.037 245.911 C 77.750 246.069,78.042 246.221,77.685 246.248 C 76.919 246.305,76.865 246.786,77.500 247.895 C 77.755 248.340,78.059 250.620,78.176 252.963 C 78.381 257.056,78.389 256.998,78.362 251.481 L 78.333 245.741 77.037 245.682 L 75.741 245.623 77.037 245.911 M130.212 248.136 C 132.579 248.407,133.469 248.741,133.159 249.241 C 133.057 249.407,133.309 249.970,133.720 250.493 C 134.131 251.015,134.890 252.365,135.406 253.492 C 135.922 254.619,136.500 255.638,136.691 255.756 C 136.881 255.873,137.067 256.835,137.104 257.892 L 137.171 259.815 137.309 258.052 C 137.759 252.343,134.360 247.706,129.815 247.829 L 127.963 247.879 130.212 248.136 M143.313 249.167 L 142.037 250.556 143.426 249.279 C 144.719 248.091,144.985 247.778,144.702 247.778 C 144.640 247.778,144.015 248.403,143.313 249.167 M184.074 248.519 C 184.481 248.926,184.815 249.454,184.815 249.691 C 184.815 249.929,184.921 250.018,185.050 249.888 C 185.347 249.591,184.182 247.778,183.695 247.778 C 183.496 247.778,183.667 248.111,184.074 248.519 M149.980 251.759 L 148.704 253.148 150.093 251.872 C 151.385 250.684,151.652 250.370,151.369 250.370 C 151.307 250.370,150.682 250.995,149.980 251.759 M157.123 251.852 C 157.123 252.565,157.199 252.856,157.292 252.500 C 157.386 252.144,157.386 251.560,157.292 251.204 C 157.199 250.847,157.123 251.139,157.123 251.852 M60.833 253.053 C 60.898 253.892,61.123 254.271,61.581 254.311 C 61.998 254.348,62.040 254.307,61.696 254.199 C 61.398 254.105,61.061 253.538,60.948 252.940 C 60.750 251.902,60.745 251.907,60.833 253.053 M99.829 252.315 C 99.517 253.289,99.428 255.495,99.707 255.323 C 99.868 255.223,100.000 254.493,100.000 253.700 L 100.000 252.258 102.315 252.126 L 104.630 251.995 102.303 251.923 C 100.715 251.874,99.930 251.999,99.829 252.315 M106.060 252.667 C 106.757 252.920,106.967 253.147,106.674 253.329 C 106.175 253.637,107.136 255.926,107.764 255.926 C 107.949 255.926,108.168 256.468,108.251 257.130 C 108.351 257.941,108.419 257.690,108.459 256.360 C 108.524 254.213,107.152 252.188,105.677 252.251 C 105.231 252.271,105.363 252.413,106.060 252.667 M69.365 254.630 C 69.368 255.648,69.440 256.021,69.525 255.458 C 69.610 254.895,69.608 254.062,69.520 253.606 C 69.432 253.150,69.362 253.611,69.365 254.630 M93.618 253.231 C 94.283 253.314,95.283 253.312,95.840 253.228 C 96.397 253.143,95.852 253.076,94.630 253.078 C 93.407 253.080,92.952 253.149,93.618 253.231 M147.945 254.479 C 147.619 255.109,147.419 255.690,147.499 255.771 C 147.579 255.851,147.922 255.335,148.261 254.625 C 149.023 253.028,148.759 252.906,147.945 254.479 M123.313 255.463 L 122.037 256.852 123.426 255.575 C 124.719 254.387,124.985 254.074,124.702 254.074 C 124.640 254.074,124.015 254.699,123.313 255.463 M128.254 257.222 C 128.257 258.241,128.329 258.613,128.414 258.050 C 128.499 257.487,128.497 256.654,128.409 256.199 C 128.321 255.743,128.251 256.204,128.254 257.222 M84.444 257.593 C 83.545 258.509,82.892 259.259,82.994 259.259 C 83.096 259.259,83.915 258.509,84.815 257.593 C 85.714 256.676,86.367 255.926,86.265 255.926 C 86.163 255.926,85.344 256.676,84.444 257.593 M77.889 259.259 C 77.889 260.380,77.958 260.838,78.043 260.278 C 78.128 259.718,78.128 258.801,78.043 258.241 C 77.958 257.681,77.889 258.139,77.889 259.259 M68.975 258.889 C 68.975 259.602,69.051 259.894,69.144 259.537 C 69.237 259.181,69.237 258.597,69.144 258.241 C 69.051 257.884,68.975 258.176,68.975 258.889 M177.493 258.889 C 177.493 259.602,177.570 259.894,177.663 259.537 C 177.756 259.181,177.756 258.597,177.663 258.241 C 177.570 257.884,177.493 258.176,177.493 258.889 M145.989 261.481 C 145.942 262.672,146.776 264.177,147.545 264.290 C 148.083 264.369,148.088 264.298,147.590 263.588 C 147.286 263.154,147.025 262.377,147.011 261.862 C 146.987 261.016,146.956 260.997,146.687 261.667 C 146.408 262.358,146.377 262.346,146.208 261.481 L 146.027 260.556 145.989 261.481 M177.148 262.593 C 177.148 263.713,177.217 264.171,177.302 263.611 C 177.387 263.051,177.387 262.134,177.302 261.574 C 177.217 261.014,177.148 261.472,177.148 262.593 M77.508 262.963 C 77.508 263.880,77.581 264.255,77.669 263.796 C 77.757 263.338,77.757 262.588,77.669 262.130 C 77.581 261.671,77.508 262.046,77.508 262.963 M164.199 264.444 C 164.199 265.972,164.264 266.597,164.344 265.833 C 164.424 265.069,164.424 263.819,164.344 263.056 C 164.264 262.292,164.199 262.917,164.199 264.444 M167.879 263.333 C 167.879 264.250,167.951 264.625,168.039 264.167 C 168.127 263.708,168.127 262.958,168.039 262.500 C 167.951 262.042,167.879 262.417,167.879 263.333 M109.381 266.481 C 109.382 267.907,109.449 268.445,109.530 267.677 C 109.610 266.908,109.608 265.742,109.527 265.084 C 109.445 264.427,109.379 265.056,109.381 266.481 M118.449 266.852 C 118.174 269.757,118.418 270.268,120.190 270.497 C 120.799 270.576,121.017 270.570,120.675 270.483 C 119.557 270.200,119.077 269.187,118.884 266.704 L 118.694 264.259 118.449 266.852 M154.303 265.019 C 154.182 265.335,154.235 265.500,154.422 265.384 C 154.609 265.269,154.834 265.552,154.923 266.013 C 155.041 266.626,155.098 266.528,155.135 265.648 C 155.187 264.397,154.687 264.019,154.303 265.019 M87.317 269.043 C 87.146 270.609,87.226 271.507,87.598 272.191 C 87.884 272.718,88.125 272.914,88.133 272.628 C 88.145 272.213,88.285 272.232,88.825 272.720 C 89.547 273.373,90.938 273.542,91.263 273.016 C 91.371 272.842,91.042 272.779,90.531 272.877 C 89.527 273.069,88.148 272.109,88.148 271.217 C 88.148 270.931,88.020 270.776,87.864 270.873 C 87.707 270.970,87.639 270.415,87.713 269.639 C 87.787 268.864,87.782 267.920,87.702 267.541 C 87.622 267.162,87.448 267.838,87.317 269.043 M131.643 270.093 L 130.556 271.296 131.759 270.208 C 132.881 269.194,133.133 268.889,132.847 268.889 C 132.783 268.889,132.242 269.431,131.643 270.093 M78.612 271.296 C 78.616 272.111,78.692 272.401,78.780 271.940 C 78.869 271.479,78.866 270.813,78.773 270.459 C 78.680 270.105,78.608 270.481,78.612 271.296 M104.908 273.519 C 104.912 274.333,104.988 274.623,105.077 274.162 C 105.165 273.702,105.162 273.035,105.069 272.681 C 104.977 272.327,104.904 272.704,104.908 273.519 M95.862 274.444 C 95.940 275.259,96.070 275.926,96.150 275.926 C 96.230 275.926,96.296 275.259,96.296 274.444 C 96.296 273.630,96.167 272.963,96.009 272.963 C 95.851 272.963,95.785 273.630,95.862 274.444 M116.574 276.194 C 117.236 276.276,118.319 276.276,118.981 276.194 C 119.644 276.112,119.102 276.044,117.778 276.044 C 116.454 276.044,115.912 276.112,116.574 276.194 M70.168 283.426 L 68.704 285.000 70.278 283.536 C 71.742 282.174,72.022 281.852,71.742 281.852 C 71.681 281.852,70.973 282.560,70.168 283.426 M63.056 286.552 C 63.412 286.645,63.995 286.645,64.352 286.552 C 64.708 286.458,64.417 286.382,63.704 286.382 C 62.991 286.382,62.699 286.458,63.056 286.552 " stroke="none" fill="#9bb7ab" fill-rule="evenodd"/>
  </g>
</svg>