<svg width="109" height="37" viewBox="0 0 109 37" fill="none" xmlns="http://www.w3.org/2000/svg">
<path d="M29.095 7.47C29.355 7.47 29.5833 7.43667 29.78 7.37C29.98 7.30333 30.145 7.21 30.275 7.09C30.4083 6.96667 30.5083 6.81833 30.575 6.645C30.6417 6.47167 30.675 6.27833 30.675 6.065C30.675 5.855 30.6417 5.66667 30.575 5.5C30.5117 5.33333 30.415 5.19167 30.285 5.075C30.155 4.95833 29.99 4.87 29.79 4.81C29.5933 4.74667 29.3617 4.715 29.095 4.715H28.025V7.47H29.095ZM29.095 3.8C29.565 3.8 29.9717 3.855 30.315 3.965C30.6617 4.075 30.9467 4.23 31.17 4.43C31.3967 4.62667 31.565 4.865 31.675 5.145C31.785 5.42167 31.84 5.72833 31.84 6.065C31.84 6.40833 31.7817 6.72333 31.665 7.01C31.5483 7.29333 31.375 7.53833 31.145 7.745C30.915 7.94833 30.6283 8.10833 30.285 8.225C29.945 8.33833 29.5483 8.395 29.095 8.395H28.025V11H26.855V3.8H29.095ZM37.0292 5.9V11H36.3792C36.2359 11 36.1442 10.9317 36.1042 10.795L36.0242 10.32C35.9176 10.4333 35.8042 10.5367 35.6842 10.63C35.5676 10.7233 35.4426 10.8033 35.3092 10.87C35.1759 10.9367 35.0326 10.9883 34.8792 11.025C34.7292 11.0617 34.5676 11.08 34.3942 11.08C34.1142 11.08 33.8676 11.0333 33.6542 10.94C33.4409 10.8467 33.2609 10.715 33.1142 10.545C32.9709 10.375 32.8626 10.1717 32.7892 9.935C32.7159 9.695 32.6792 9.43167 32.6792 9.145V5.9H33.7542V9.145C33.7542 9.48833 33.8326 9.755 33.9892 9.945C34.1492 10.135 34.3909 10.23 34.7142 10.23C34.9509 10.23 35.1709 10.1767 35.3742 10.07C35.5809 9.96 35.7742 9.81 35.9542 9.62V5.9H37.0292ZM41.3797 6.825C41.353 6.87167 41.323 6.905 41.2897 6.925C41.2564 6.945 41.2147 6.955 41.1647 6.955C41.108 6.955 41.0464 6.93833 40.9797 6.905C40.913 6.86833 40.8347 6.82833 40.7447 6.785C40.6547 6.74167 40.548 6.70333 40.4247 6.67C40.3047 6.63333 40.163 6.615 39.9997 6.615C39.8664 6.615 39.7447 6.63167 39.6347 6.665C39.528 6.695 39.4364 6.74 39.3597 6.8C39.2864 6.85667 39.2297 6.925 39.1897 7.005C39.1497 7.08167 39.1297 7.165 39.1297 7.255C39.1297 7.375 39.1664 7.475 39.2397 7.555C39.313 7.635 39.4097 7.705 39.5297 7.765C39.6497 7.82167 39.7864 7.87333 39.9397 7.92C40.093 7.96667 40.2497 8.01667 40.4097 8.07C40.5697 8.12333 40.7264 8.185 40.8797 8.255C41.033 8.325 41.1697 8.41167 41.2897 8.515C41.4097 8.615 41.5064 8.73833 41.5797 8.885C41.653 9.02833 41.6897 9.20333 41.6897 9.41C41.6897 9.65 41.6464 9.87167 41.5597 10.075C41.473 10.2783 41.3464 10.455 41.1797 10.605C41.013 10.755 40.8047 10.8717 40.5547 10.955C40.308 11.0383 40.0247 11.08 39.7047 11.08C39.528 11.08 39.3564 11.0633 39.1897 11.03C39.0264 11 38.8697 10.9583 38.7197 10.905C38.573 10.8483 38.4347 10.7817 38.3047 10.705C38.178 10.6283 38.0647 10.545 37.9647 10.455L38.2147 10.045C38.2447 9.995 38.2814 9.95667 38.3247 9.93C38.3714 9.9 38.428 9.885 38.4947 9.885C38.5647 9.885 38.633 9.90833 38.6997 9.955C38.7697 9.99833 38.8497 10.0467 38.9397 10.1C39.033 10.1533 39.1447 10.2033 39.2747 10.25C39.4047 10.2933 39.5664 10.315 39.7597 10.315C39.9197 10.315 40.058 10.2967 40.1747 10.26C40.2914 10.22 40.388 10.1667 40.4647 10.1C40.5414 10.0333 40.598 9.95833 40.6347 9.875C40.6714 9.78833 40.6897 9.69667 40.6897 9.6C40.6897 9.47 40.653 9.36333 40.5797 9.28C40.5064 9.19667 40.408 9.125 40.2847 9.065C40.1647 9.005 40.0264 8.95167 39.8697 8.905C39.7164 8.85833 39.5597 8.80833 39.3997 8.755C39.2397 8.70167 39.0814 8.64 38.9247 8.57C38.7714 8.5 38.633 8.41167 38.5097 8.305C38.3897 8.195 38.293 8.06333 38.2197 7.91C38.1464 7.75333 38.1097 7.56333 38.1097 7.34C38.1097 7.13667 38.1497 6.94333 38.2297 6.76C38.313 6.57667 38.433 6.415 38.5897 6.275C38.7497 6.135 38.9447 6.025 39.1747 5.945C39.408 5.86167 39.6764 5.82 39.9797 5.82C40.323 5.82 40.6347 5.875 40.9147 5.985C41.1947 6.095 41.4297 6.245 41.6197 6.435L41.3797 6.825ZM45.4249 8.77C45.0416 8.78333 44.7183 8.815 44.4549 8.865C44.1916 8.91167 43.9783 8.97333 43.8149 9.05C43.6516 9.12333 43.5333 9.21167 43.4599 9.315C43.3899 9.41833 43.3549 9.53167 43.3549 9.655C43.3549 9.775 43.3733 9.87833 43.4099 9.965C43.4499 10.0483 43.5033 10.1183 43.5699 10.175C43.6399 10.2283 43.7199 10.2683 43.8099 10.295C43.9033 10.3183 44.0049 10.33 44.1149 10.33C44.3949 10.33 44.6349 10.2783 44.8349 10.175C45.0383 10.0683 45.2349 9.915 45.4249 9.715V8.77ZM42.5749 6.61C43.1516 6.07333 43.8383 5.805 44.6349 5.805C44.9283 5.805 45.1883 5.85333 45.4149 5.95C45.6449 6.04333 45.8366 6.17667 45.9899 6.35C46.1466 6.52333 46.2649 6.73 46.3449 6.97C46.4283 7.20667 46.4699 7.47 46.4699 7.76V11H45.9899C45.8866 11 45.8083 10.985 45.7549 10.955C45.7016 10.9217 45.6566 10.8567 45.6199 10.76L45.5149 10.345C45.3849 10.4617 45.2566 10.5667 45.1299 10.66C45.0033 10.75 44.8716 10.8267 44.7349 10.89C44.6016 10.9533 44.4566 11 44.2999 11.03C44.1466 11.0633 43.9766 11.08 43.7899 11.08C43.5833 11.08 43.3899 11.0517 43.2099 10.995C43.0333 10.9383 42.8799 10.8533 42.7499 10.74C42.6199 10.6233 42.5166 10.48 42.4399 10.31C42.3666 10.14 42.3299 9.94 42.3299 9.71C42.3299 9.51333 42.3816 9.32167 42.4849 9.135C42.5916 8.94833 42.7649 8.78167 43.0049 8.635C43.2483 8.485 43.5666 8.36167 43.9599 8.265C44.3566 8.16833 44.8449 8.11333 45.4249 8.1V7.76C45.4249 7.39333 45.3466 7.12 45.1899 6.94C45.0333 6.76 44.8033 6.67 44.4999 6.67C44.2933 6.67 44.1199 6.69667 43.9799 6.75C43.8399 6.8 43.7183 6.855 43.6149 6.915C43.5116 6.975 43.4199 7.03167 43.3399 7.085C43.2599 7.135 43.1749 7.16 43.0849 7.16C43.0116 7.16 42.9483 7.14167 42.8949 7.105C42.8449 7.065 42.8033 7.01667 42.7699 6.96L42.5749 6.61ZM49.2959 11.08C48.8725 11.08 48.5459 10.9617 48.3159 10.725C48.0892 10.485 47.9759 10.1483 47.9759 9.715V6.745H47.4159C47.3559 6.745 47.3042 6.72667 47.2609 6.69C47.2175 6.65 47.1959 6.59167 47.1959 6.515V6.08L48.0209 5.96L48.2559 4.485C48.2725 4.42833 48.3009 4.38333 48.3409 4.35C48.3809 4.31333 48.4342 4.295 48.5009 4.295H49.0509V5.97H50.4659V6.745H49.0509V9.64C49.0509 9.82333 49.0959 9.96333 49.1859 10.06C49.2759 10.1567 49.3959 10.205 49.5459 10.205C49.6292 10.205 49.7009 10.195 49.7609 10.175C49.8209 10.1517 49.8725 10.1283 49.9159 10.105C49.9592 10.0783 49.9959 10.055 50.0259 10.035C50.0592 10.0117 50.0909 10 50.1209 10C50.1809 10 50.2292 10.0333 50.2659 10.1L50.5859 10.625C50.4192 10.7717 50.2225 10.885 49.9959 10.965C49.7692 11.0417 49.5359 11.08 49.2959 11.08ZM55.1734 6.88H55.5084C55.6351 6.88 55.7384 6.86333 55.8184 6.83C55.8984 6.79333 55.9701 6.73667 56.0334 6.66L58.2134 4.06C58.2901 3.96333 58.3684 3.89667 58.4484 3.86C58.5318 3.82 58.6351 3.8 58.7584 3.8H59.7584L57.1834 6.84C57.1134 6.92667 57.0451 7 56.9784 7.06C56.9151 7.11667 56.8451 7.16333 56.7684 7.2C56.8684 7.23667 56.9584 7.28833 57.0384 7.355C57.1184 7.41833 57.1968 7.50333 57.2734 7.61L59.9434 11H58.9234C58.8501 11 58.7868 10.995 58.7334 10.985C58.6834 10.975 58.6384 10.96 58.5984 10.94C58.5618 10.92 58.5284 10.895 58.4984 10.865C58.4718 10.835 58.4468 10.8017 58.4234 10.765L56.1734 8.015C56.1401 7.97167 56.1068 7.935 56.0734 7.905C56.0401 7.875 56.0001 7.85 55.9534 7.83C55.9101 7.81 55.8601 7.79667 55.8034 7.79C55.7468 7.78 55.6801 7.775 55.6034 7.775H55.1734V11H54.0034V3.8H55.1734V6.88ZM62.3854 5.82C62.7621 5.82 63.1021 5.88167 63.4054 6.005C63.7121 6.12833 63.9721 6.30333 64.1854 6.53C64.4021 6.75667 64.5687 7.03167 64.6854 7.355C64.8021 7.67833 64.8604 8.04167 64.8604 8.445C64.8604 8.84833 64.8021 9.21167 64.6854 9.535C64.5687 9.85833 64.4021 10.135 64.1854 10.365C63.9721 10.5917 63.7121 10.7667 63.4054 10.89C63.1021 11.0133 62.7621 11.075 62.3854 11.075C62.0054 11.075 61.6621 11.0133 61.3554 10.89C61.0521 10.7667 60.7921 10.5917 60.5754 10.365C60.3587 10.135 60.1921 9.85833 60.0754 9.535C59.9587 9.21167 59.9004 8.84833 59.9004 8.445C59.9004 8.04167 59.9587 7.67833 60.0754 7.355C60.1921 7.03167 60.3587 6.75667 60.5754 6.53C60.7921 6.30333 61.0521 6.12833 61.3554 6.005C61.6621 5.88167 62.0054 5.82 62.3854 5.82ZM62.3854 10.235C62.8454 10.235 63.1871 10.0817 63.4104 9.775C63.6371 9.465 63.7504 9.02333 63.7504 8.45C63.7504 7.87667 63.6371 7.435 63.4104 7.125C63.1871 6.81167 62.8454 6.655 62.3854 6.655C61.9187 6.655 61.5721 6.81167 61.3454 7.125C61.1187 7.435 61.0054 7.87667 61.0054 8.45C61.0054 9.02333 61.1187 9.465 61.3454 9.775C61.5721 10.0817 61.9187 10.235 62.3854 10.235ZM65.8933 11V5.9H66.5433C66.6899 5.9 66.7833 5.96833 66.8233 6.105L66.8933 6.55C66.9866 6.44333 67.0833 6.34667 67.1833 6.26C67.2833 6.17 67.3899 6.09333 67.5033 6.03C67.6199 5.96333 67.7433 5.91167 67.8733 5.875C68.0066 5.83833 68.1499 5.82 68.3033 5.82C68.4666 5.82 68.6166 5.84333 68.7533 5.89C68.8899 5.93667 69.0099 6.00333 69.1133 6.09C69.2199 6.17667 69.3116 6.28167 69.3883 6.405C69.4649 6.52833 69.5283 6.66667 69.5783 6.82C69.6549 6.64333 69.7516 6.49167 69.8683 6.365C69.9849 6.23833 70.1149 6.135 70.2583 6.055C70.4016 5.975 70.5533 5.91667 70.7133 5.88C70.8766 5.84 71.0416 5.82 71.2083 5.82C71.4816 5.82 71.7249 5.86333 71.9383 5.95C72.1549 6.03667 72.3366 6.16333 72.4833 6.33C72.6333 6.49333 72.7466 6.695 72.8233 6.935C72.8999 7.175 72.9383 7.44833 72.9383 7.755V11H71.8633V7.755C71.8633 7.395 71.7849 7.125 71.6283 6.945C71.4749 6.76167 71.2466 6.67 70.9433 6.67C70.8066 6.67 70.6783 6.69333 70.5583 6.74C70.4383 6.78667 70.3333 6.855 70.2433 6.945C70.1533 7.035 70.0816 7.14833 70.0283 7.285C69.9783 7.41833 69.9533 7.575 69.9533 7.755V11H68.8783V7.755C68.8783 7.38167 68.8033 7.10833 68.6533 6.935C68.5033 6.75833 68.2833 6.67 67.9933 6.67C67.7933 6.67 67.6083 6.72167 67.4383 6.825C67.2683 6.925 67.1116 7.06333 66.9683 7.24V11H65.8933ZM76.9191 8.77C76.5357 8.78333 76.2124 8.815 75.9491 8.865C75.6857 8.91167 75.4724 8.97333 75.3091 9.05C75.1457 9.12333 75.0274 9.21167 74.9541 9.315C74.8841 9.41833 74.8491 9.53167 74.8491 9.655C74.8491 9.775 74.8674 9.87833 74.9041 9.965C74.9441 10.0483 74.9974 10.1183 75.0641 10.175C75.1341 10.2283 75.2141 10.2683 75.3041 10.295C75.3974 10.3183 75.4991 10.33 75.6091 10.33C75.8891 10.33 76.1291 10.2783 76.3291 10.175C76.5324 10.0683 76.7291 9.915 76.9191 9.715V8.77ZM74.0691 6.61C74.6457 6.07333 75.3324 5.805 76.1291 5.805C76.4224 5.805 76.6824 5.85333 76.9091 5.95C77.1391 6.04333 77.3307 6.17667 77.4841 6.35C77.6407 6.52333 77.7591 6.73 77.8391 6.97C77.9224 7.20667 77.9641 7.47 77.9641 7.76V11H77.4841C77.3807 11 77.3024 10.985 77.2491 10.955C77.1957 10.9217 77.1507 10.8567 77.1141 10.76L77.0091 10.345C76.8791 10.4617 76.7507 10.5667 76.6241 10.66C76.4974 10.75 76.3657 10.8267 76.2291 10.89C76.0957 10.9533 75.9507 11 75.7941 11.03C75.6407 11.0633 75.4707 11.08 75.2841 11.08C75.0774 11.08 74.8841 11.0517 74.7041 10.995C74.5274 10.9383 74.3741 10.8533 74.2441 10.74C74.1141 10.6233 74.0107 10.48 73.9341 10.31C73.8607 10.14 73.8241 9.94 73.8241 9.71C73.8241 9.51333 73.8757 9.32167 73.9791 9.135C74.0857 8.94833 74.2591 8.78167 74.4991 8.635C74.7424 8.485 75.0607 8.36167 75.4541 8.265C75.8507 8.16833 76.3391 8.11333 76.9191 8.1V7.76C76.9191 7.39333 76.8407 7.12 76.6841 6.94C76.5274 6.76 76.2974 6.67 75.9941 6.67C75.7874 6.67 75.6141 6.69667 75.4741 6.75C75.3341 6.8 75.2124 6.855 75.1091 6.915C75.0057 6.975 74.9141 7.03167 74.8341 7.085C74.7541 7.135 74.6691 7.16 74.5791 7.16C74.5057 7.16 74.4424 7.14167 74.3891 7.105C74.3391 7.065 74.2974 7.01667 74.2641 6.96L74.0691 6.61ZM80.2284 6.575C80.3384 6.46167 80.4517 6.36 80.5684 6.27C80.6884 6.17667 80.815 6.09667 80.9484 6.03C81.0817 5.96333 81.2234 5.91167 81.3734 5.875C81.5234 5.83833 81.6867 5.82 81.8634 5.82C82.1434 5.82 82.3884 5.86667 82.5984 5.96C82.8117 6.05333 82.99 6.185 83.1334 6.355C83.28 6.525 83.39 6.73 83.4634 6.97C83.5367 7.20667 83.5734 7.46833 83.5734 7.755V11H82.5034V7.755C82.5034 7.41167 82.4234 7.145 82.2634 6.955C82.1067 6.765 81.8667 6.67 81.5434 6.67C81.3034 6.67 81.08 6.725 80.8734 6.835C80.67 6.945 80.4784 7.095 80.2984 7.285V11H79.2234V5.9H79.8734C80.02 5.9 80.1134 5.96833 80.1534 6.105L80.2284 6.575ZM88.0838 7.155C87.9338 6.96167 87.7688 6.82667 87.5888 6.75C87.4088 6.67333 87.2138 6.635 87.0038 6.635C86.5838 6.635 86.2555 6.79 86.0188 7.1C85.7822 7.40667 85.6638 7.86167 85.6638 8.465C85.6638 8.77833 85.6905 9.04667 85.7438 9.27C85.7972 9.49 85.8738 9.67 85.9738 9.81C86.0738 9.95 86.1955 10.0517 86.3388 10.115C86.4822 10.1783 86.6438 10.21 86.8238 10.21C87.0972 10.21 87.3322 10.1517 87.5288 10.035C87.7288 9.915 87.9138 9.74667 88.0838 9.53V7.155ZM89.1588 3.6V11H88.5088C88.3655 11 88.2738 10.9317 88.2338 10.795L88.1388 10.24C87.9255 10.49 87.6822 10.6917 87.4088 10.845C87.1388 10.9983 86.8238 11.075 86.4638 11.075C86.1772 11.075 85.9172 11.0183 85.6838 10.905C85.4505 10.7883 85.2505 10.62 85.0838 10.4C84.9172 10.18 84.7872 9.90833 84.6938 9.585C84.6038 9.25833 84.5588 8.885 84.5588 8.465C84.5588 8.085 84.6088 7.73333 84.7088 7.41C84.8122 7.08667 84.9588 6.80667 85.1488 6.57C85.3388 6.33 85.5688 6.14333 85.8388 6.01C86.1122 5.87333 86.4172 5.805 86.7538 5.805C87.0538 5.805 87.3088 5.85333 87.5188 5.95C87.7288 6.04333 87.9172 6.175 88.0838 6.345V3.6H89.1588ZM92.6784 5.82C93.055 5.82 93.395 5.88167 93.6984 6.005C94.005 6.12833 94.265 6.30333 94.4784 6.53C94.695 6.75667 94.8617 7.03167 94.9784 7.355C95.095 7.67833 95.1534 8.04167 95.1534 8.445C95.1534 8.84833 95.095 9.21167 94.9784 9.535C94.8617 9.85833 94.695 10.135 94.4784 10.365C94.265 10.5917 94.005 10.7667 93.6984 10.89C93.395 11.0133 93.055 11.075 92.6784 11.075C92.2984 11.075 91.955 11.0133 91.6484 10.89C91.345 10.7667 91.085 10.5917 90.8684 10.365C90.6517 10.135 90.485 9.85833 90.3684 9.535C90.2517 9.21167 90.1934 8.84833 90.1934 8.445C90.1934 8.04167 90.2517 7.67833 90.3684 7.355C90.485 7.03167 90.6517 6.75667 90.8684 6.53C91.085 6.30333 91.345 6.12833 91.6484 6.005C91.955 5.88167 92.2984 5.82 92.6784 5.82ZM92.6784 10.235C93.1384 10.235 93.48 10.0817 93.7034 9.775C93.93 9.465 94.0434 9.02333 94.0434 8.45C94.0434 7.87667 93.93 7.435 93.7034 7.125C93.48 6.81167 93.1384 6.655 92.6784 6.655C92.2117 6.655 91.865 6.81167 91.6384 7.125C91.4117 7.435 91.2984 7.87667 91.2984 8.45C91.2984 9.02333 91.4117 9.465 91.6384 9.775C91.865 10.0817 92.2117 10.235 92.6784 10.235ZM28.025 18.88H28.36C28.4867 18.88 28.59 18.8633 28.67 18.83C28.75 18.7933 28.8217 18.7367 28.885 18.66L31.065 16.06C31.1417 15.9633 31.22 15.8967 31.3 15.86C31.3833 15.82 31.4867 15.8 31.61 15.8H32.61L30.035 18.84C29.965 18.9267 29.8967 19 29.83 19.06C29.7667 19.1167 29.6967 19.1633 29.62 19.2C29.72 19.2367 29.81 19.2883 29.89 19.355C29.97 19.4183 30.0483 19.5033 30.125 19.61L32.795 23H31.775C31.7017 23 31.6383 22.995 31.585 22.985C31.535 22.975 31.49 22.96 31.45 22.94C31.4133 22.92 31.38 22.895 31.35 22.865C31.3233 22.835 31.2983 22.8017 31.275 22.765L29.025 20.015C28.9917 19.9717 28.9583 19.935 28.925 19.905C28.8917 19.875 28.8517 19.85 28.805 19.83C28.7617 19.81 28.7117 19.7967 28.655 19.79C28.5983 19.78 28.5317 19.775 28.455 19.775H28.025V23H26.855V15.8H28.025V18.88ZM36.377 19.875C36.377 19.695 36.3503 19.5283 36.297 19.375C36.247 19.2183 36.172 19.0833 36.072 18.97C35.972 18.8533 35.847 18.7633 35.697 18.7C35.5503 18.6333 35.3803 18.6 35.187 18.6C34.797 18.6 34.4903 18.7117 34.267 18.935C34.0436 19.1583 33.902 19.4717 33.842 19.875H36.377ZM33.812 20.535C33.8253 20.825 33.8703 21.0767 33.947 21.29C34.0236 21.5 34.1253 21.675 34.252 21.815C34.382 21.955 34.5353 22.06 34.712 22.13C34.892 22.1967 35.092 22.23 35.312 22.23C35.522 22.23 35.7036 22.2067 35.857 22.16C36.0103 22.11 36.1436 22.0567 36.257 22C36.3703 21.94 36.467 21.8867 36.547 21.84C36.627 21.79 36.7003 21.765 36.767 21.765C36.8536 21.765 36.9203 21.7983 36.967 21.865L37.272 22.26C37.1453 22.41 37.002 22.5367 36.842 22.64C36.682 22.7433 36.512 22.8283 36.332 22.895C36.152 22.9583 35.967 23.0033 35.777 23.03C35.587 23.06 35.402 23.075 35.222 23.075C34.8686 23.075 34.5403 23.0167 34.237 22.9C33.937 22.78 33.6753 22.605 33.452 22.375C33.232 22.145 33.0586 21.86 32.932 21.52C32.8086 21.18 32.747 20.7883 32.747 20.345C32.747 19.9917 32.802 19.6617 32.912 19.355C33.0253 19.0483 33.1853 18.7817 33.392 18.555C33.602 18.3283 33.8553 18.15 34.152 18.02C34.452 17.8867 34.7903 17.82 35.167 17.82C35.4803 17.82 35.7703 17.8717 36.037 17.975C36.3036 18.075 36.5336 18.2233 36.727 18.42C36.9203 18.6167 37.0703 18.8583 37.177 19.145C37.287 19.4283 37.342 19.7517 37.342 20.115C37.342 20.2817 37.3236 20.3933 37.287 20.45C37.2503 20.5067 37.1836 20.535 37.087 20.535H33.812ZM39.9306 23.08C39.5073 23.08 39.1806 22.9617 38.9506 22.725C38.724 22.485 38.6106 22.1483 38.6106 21.715V18.745H38.0506C37.9906 18.745 37.939 18.7267 37.8956 18.69C37.8523 18.65 37.8306 18.5917 37.8306 18.515V18.08L38.6556 17.96L38.8906 16.485C38.9073 16.4283 38.9356 16.3833 38.9756 16.35C39.0156 16.3133 39.069 16.295 39.1356 16.295H39.6856V17.97H41.1006V18.745H39.6856V21.64C39.6856 21.8233 39.7306 21.9633 39.8206 22.06C39.9106 22.1567 40.0306 22.205 40.1806 22.205C40.264 22.205 40.3356 22.195 40.3956 22.175C40.4556 22.1517 40.5073 22.1283 40.5506 22.105C40.594 22.0783 40.6306 22.055 40.6606 22.035C40.694 22.0117 40.7256 22 40.7556 22C40.8156 22 40.864 22.0333 40.9006 22.1L41.2206 22.625C41.054 22.7717 40.8573 22.885 40.6306 22.965C40.404 23.0417 40.1706 23.08 39.9306 23.08ZM44.673 20.77C44.2896 20.7833 43.9663 20.815 43.703 20.865C43.4396 20.9117 43.2263 20.9733 43.063 21.05C42.8996 21.1233 42.7813 21.2117 42.708 21.315C42.638 21.4183 42.603 21.5317 42.603 21.655C42.603 21.775 42.6213 21.8783 42.658 21.965C42.698 22.0483 42.7513 22.1183 42.818 22.175C42.888 22.2283 42.968 22.2683 43.058 22.295C43.1513 22.3183 43.253 22.33 43.363 22.33C43.643 22.33 43.883 22.2783 44.083 22.175C44.2863 22.0683 44.483 21.915 44.673 21.715V20.77ZM41.823 18.61C42.3996 18.0733 43.0863 17.805 43.883 17.805C44.1763 17.805 44.4363 17.8533 44.663 17.95C44.893 18.0433 45.0846 18.1767 45.238 18.35C45.3946 18.5233 45.513 18.73 45.593 18.97C45.6763 19.2067 45.718 19.47 45.718 19.76V23H45.238C45.1346 23 45.0563 22.985 45.003 22.955C44.9496 22.9217 44.9046 22.8567 44.868 22.76L44.763 22.345C44.633 22.4617 44.5046 22.5667 44.378 22.66C44.2513 22.75 44.1196 22.8267 43.983 22.89C43.8496 22.9533 43.7046 23 43.548 23.03C43.3946 23.0633 43.2246 23.08 43.038 23.08C42.8313 23.08 42.638 23.0517 42.458 22.995C42.2813 22.9383 42.128 22.8533 41.998 22.74C41.868 22.6233 41.7646 22.48 41.688 22.31C41.6146 22.14 41.578 21.94 41.578 21.71C41.578 21.5133 41.6296 21.3217 41.733 21.135C41.8396 20.9483 42.013 20.7817 42.253 20.635C42.4963 20.485 42.8146 20.3617 43.208 20.265C43.6046 20.1683 44.093 20.1133 44.673 20.1V19.76C44.673 19.3933 44.5946 19.12 44.438 18.94C44.2813 18.76 44.0513 18.67 43.748 18.67C43.5413 18.67 43.368 18.6967 43.228 18.75C43.088 18.8 42.9663 18.855 42.863 18.915C42.7596 18.975 42.668 19.0317 42.588 19.085C42.508 19.135 42.423 19.16 42.333 19.16C42.2596 19.16 42.1963 19.1417 42.143 19.105C42.093 19.065 42.0513 19.0167 42.018 18.96L41.823 18.61ZM48.0523 18.505C48.2623 18.2983 48.4923 18.1333 48.7423 18.01C48.9923 17.8833 49.2839 17.82 49.6173 17.82C49.8973 17.82 50.1423 17.8667 50.3523 17.96C50.5656 18.0533 50.7439 18.185 50.8873 18.355C51.0339 18.525 51.1439 18.73 51.2173 18.97C51.2906 19.2067 51.3273 19.4683 51.3273 19.755V23H50.2573V19.755C50.2573 19.4117 50.1773 19.145 50.0173 18.955C49.8606 18.765 49.6206 18.67 49.2973 18.67C49.0573 18.67 48.8339 18.725 48.6273 18.835C48.4239 18.945 48.2323 19.095 48.0523 19.285V23H46.9773V15.6H48.0523V18.505ZM55.3077 20.77C54.9244 20.7833 54.6011 20.815 54.3377 20.865C54.0744 20.9117 53.8611 20.9733 53.6977 21.05C53.5344 21.1233 53.4161 21.2117 53.3427 21.315C53.2727 21.4183 53.2377 21.5317 53.2377 21.655C53.2377 21.775 53.2561 21.8783 53.2927 21.965C53.3327 22.0483 53.3861 22.1183 53.4527 22.175C53.5227 22.2283 53.6027 22.2683 53.6927 22.295C53.7861 22.3183 53.8877 22.33 53.9977 22.33C54.2777 22.33 54.5177 22.2783 54.7177 22.175C54.9211 22.0683 55.1177 21.915 55.3077 21.715V20.77ZM52.4577 18.61C53.0344 18.0733 53.7211 17.805 54.5177 17.805C54.8111 17.805 55.0711 17.8533 55.2977 17.95C55.5277 18.0433 55.7194 18.1767 55.8727 18.35C56.0294 18.5233 56.1477 18.73 56.2277 18.97C56.3111 19.2067 56.3527 19.47 56.3527 19.76V23H55.8727C55.7694 23 55.6911 22.985 55.6377 22.955C55.5844 22.9217 55.5394 22.8567 55.5027 22.76L55.3977 22.345C55.2677 22.4617 55.1394 22.5667 55.0127 22.66C54.8861 22.75 54.7544 22.8267 54.6177 22.89C54.4844 22.9533 54.3394 23 54.1827 23.03C54.0294 23.0633 53.8594 23.08 53.6727 23.08C53.4661 23.08 53.2727 23.0517 53.0927 22.995C52.9161 22.9383 52.7627 22.8533 52.6327 22.74C52.5027 22.6233 52.3994 22.48 52.3227 22.31C52.2494 22.14 52.2127 21.94 52.2127 21.71C52.2127 21.5133 52.2644 21.3217 52.3677 21.135C52.4744 20.9483 52.6477 20.7817 52.8877 20.635C53.1311 20.485 53.4494 20.3617 53.8427 20.265C54.2394 20.1683 54.7277 20.1133 55.3077 20.1V19.76C55.3077 19.3933 55.2294 19.12 55.0727 18.94C54.9161 18.76 54.6861 18.67 54.3827 18.67C54.1761 18.67 54.0027 18.6967 53.8627 18.75C53.7227 18.8 53.6011 18.855 53.4977 18.915C53.3944 18.975 53.3027 19.0317 53.2227 19.085C53.1427 19.135 53.0577 19.16 52.9677 19.16C52.8944 19.16 52.8311 19.1417 52.7777 19.105C52.7277 19.065 52.6861 19.0167 52.6527 18.96L52.4577 18.61ZM58.617 18.575C58.727 18.4617 58.8404 18.36 58.957 18.27C59.077 18.1767 59.2037 18.0967 59.337 18.03C59.4704 17.9633 59.612 17.9117 59.762 17.875C59.912 17.8383 60.0754 17.82 60.252 17.82C60.532 17.82 60.777 17.8667 60.987 17.96C61.2004 18.0533 61.3787 18.185 61.522 18.355C61.6687 18.525 61.7787 18.73 61.852 18.97C61.9254 19.2067 61.962 19.4683 61.962 19.755V23H60.892V19.755C60.892 19.4117 60.812 19.145 60.652 18.955C60.4954 18.765 60.2554 18.67 59.932 18.67C59.692 18.67 59.4687 18.725 59.262 18.835C59.0587 18.945 58.867 19.095 58.687 19.285V23H57.612V17.9H58.262C58.4087 17.9 58.502 17.9683 58.542 18.105L58.617 18.575ZM65.9425 20.77C65.5592 20.7833 65.2358 20.815 64.9725 20.865C64.7092 20.9117 64.4958 20.9733 64.3325 21.05C64.1692 21.1233 64.0508 21.2117 63.9775 21.315C63.9075 21.4183 63.8725 21.5317 63.8725 21.655C63.8725 21.775 63.8908 21.8783 63.9275 21.965C63.9675 22.0483 64.0208 22.1183 64.0875 22.175C64.1575 22.2283 64.2375 22.2683 64.3275 22.295C64.4208 22.3183 64.5225 22.33 64.6325 22.33C64.9125 22.33 65.1525 22.2783 65.3525 22.175C65.5558 22.0683 65.7525 21.915 65.9425 21.715V20.77ZM63.0925 18.61C63.6692 18.0733 64.3558 17.805 65.1525 17.805C65.4458 17.805 65.7058 17.8533 65.9325 17.95C66.1625 18.0433 66.3542 18.1767 66.5075 18.35C66.6642 18.5233 66.7825 18.73 66.8625 18.97C66.9458 19.2067 66.9875 19.47 66.9875 19.76V23H66.5075C66.4042 23 66.3258 22.985 66.2725 22.955C66.2192 22.9217 66.1742 22.8567 66.1375 22.76L66.0325 22.345C65.9025 22.4617 65.7742 22.5667 65.6475 22.66C65.5208 22.75 65.3892 22.8267 65.2525 22.89C65.1192 22.9533 64.9742 23 64.8175 23.03C64.6642 23.0633 64.4942 23.08 64.3075 23.08C64.1008 23.08 63.9075 23.0517 63.7275 22.995C63.5508 22.9383 63.3975 22.8533 63.2675 22.74C63.1375 22.6233 63.0342 22.48 62.9575 22.31C62.8842 22.14 62.8475 21.94 62.8475 21.71C62.8475 21.5133 62.8992 21.3217 63.0025 21.135C63.1092 20.9483 63.2825 20.7817 63.5225 20.635C63.7658 20.485 64.0842 20.3617 64.4775 20.265C64.8742 20.1683 65.3625 20.1133 65.9425 20.1V19.76C65.9425 19.3933 65.8642 19.12 65.7075 18.94C65.5508 18.76 65.3208 18.67 65.0175 18.67C64.8108 18.67 64.6375 18.6967 64.4975 18.75C64.3575 18.8 64.2358 18.855 64.1325 18.915C64.0292 18.975 63.9375 19.0317 63.8575 19.085C63.7775 19.135 63.6925 19.16 63.6025 19.16C63.5292 19.16 63.4658 19.1417 63.4125 19.105C63.3625 19.065 63.3208 19.0167 63.2875 18.96L63.0925 18.61ZM69.2518 18.575C69.3618 18.4617 69.4751 18.36 69.5918 18.27C69.7118 18.1767 69.8385 18.0967 69.9718 18.03C70.1051 17.9633 70.2468 17.9117 70.3968 17.875C70.5468 17.8383 70.7101 17.82 70.8868 17.82C71.1668 17.82 71.4118 17.8667 71.6218 17.96C71.8351 18.0533 72.0135 18.185 72.1568 18.355C72.3035 18.525 72.4135 18.73 72.4868 18.97C72.5601 19.2067 72.5968 19.4683 72.5968 19.755V23H71.5268V19.755C71.5268 19.4117 71.4468 19.145 71.2868 18.955C71.1301 18.765 70.8901 18.67 70.5668 18.67C70.3268 18.67 70.1035 18.725 69.8968 18.835C69.6935 18.945 69.5018 19.095 69.3218 19.285V23H68.2468V17.9H68.8968C69.0435 17.9 69.1368 17.9683 69.1768 18.105L69.2518 18.575ZM78.7825 19.47C79.0425 19.47 79.2708 19.4367 79.4675 19.37C79.6675 19.3033 79.8325 19.21 79.9625 19.09C80.0958 18.9667 80.1958 18.8183 80.2625 18.645C80.3292 18.4717 80.3625 18.2783 80.3625 18.065C80.3625 17.855 80.3292 17.6667 80.2625 17.5C80.1992 17.3333 80.1025 17.1917 79.9725 17.075C79.8425 16.9583 79.6775 16.87 79.4775 16.81C79.2808 16.7467 79.0492 16.715 78.7825 16.715H77.7125V19.47H78.7825ZM78.7825 15.8C79.2525 15.8 79.6592 15.855 80.0025 15.965C80.3492 16.075 80.6342 16.23 80.8575 16.43C81.0842 16.6267 81.2525 16.865 81.3625 17.145C81.4725 17.4217 81.5275 17.7283 81.5275 18.065C81.5275 18.4083 81.4692 18.7233 81.3525 19.01C81.2358 19.2933 81.0625 19.5383 80.8325 19.745C80.6025 19.9483 80.3158 20.1083 79.9725 20.225C79.6325 20.3383 79.2358 20.395 78.7825 20.395H77.7125V23H76.5425V15.8H78.7825ZM85.0148 20.77C84.6314 20.7833 84.3081 20.815 84.0448 20.865C83.7814 20.9117 83.5681 20.9733 83.4048 21.05C83.2414 21.1233 83.1231 21.2117 83.0498 21.315C82.9798 21.4183 82.9448 21.5317 82.9448 21.655C82.9448 21.775 82.9631 21.8783 82.9998 21.965C83.0398 22.0483 83.0931 22.1183 83.1598 22.175C83.2298 22.2283 83.3098 22.2683 83.3998 22.295C83.4931 22.3183 83.5948 22.33 83.7048 22.33C83.9848 22.33 84.2248 22.2783 84.4248 22.175C84.6281 22.0683 84.8248 21.915 85.0148 21.715V20.77ZM82.1648 18.61C82.7414 18.0733 83.4281 17.805 84.2248 17.805C84.5181 17.805 84.7781 17.8533 85.0048 17.95C85.2348 18.0433 85.4264 18.1767 85.5798 18.35C85.7364 18.5233 85.8548 18.73 85.9348 18.97C86.0181 19.2067 86.0598 19.47 86.0598 19.76V23H85.5798C85.4764 23 85.3981 22.985 85.3448 22.955C85.2914 22.9217 85.2464 22.8567 85.2098 22.76L85.1048 22.345C84.9748 22.4617 84.8464 22.5667 84.7198 22.66C84.5931 22.75 84.4614 22.8267 84.3248 22.89C84.1914 22.9533 84.0464 23 83.8898 23.03C83.7364 23.0633 83.5664 23.08 83.3798 23.08C83.1731 23.08 82.9798 23.0517 82.7998 22.995C82.6231 22.9383 82.4698 22.8533 82.3398 22.74C82.2098 22.6233 82.1064 22.48 82.0298 22.31C81.9564 22.14 81.9198 21.94 81.9198 21.71C81.9198 21.5133 81.9714 21.3217 82.0748 21.135C82.1814 20.9483 82.3548 20.7817 82.5948 20.635C82.8381 20.485 83.1564 20.3617 83.5498 20.265C83.9464 20.1683 84.4348 20.1133 85.0148 20.1V19.76C85.0148 19.3933 84.9364 19.12 84.7798 18.94C84.6231 18.76 84.3931 18.67 84.0898 18.67C83.8831 18.67 83.7098 18.6967 83.5698 18.75C83.4298 18.8 83.3081 18.855 83.2048 18.915C83.1014 18.975 83.0098 19.0317 82.9298 19.085C82.8498 19.135 82.7648 19.16 82.6748 19.16C82.6014 19.16 82.5381 19.1417 82.4848 19.105C82.4348 19.065 82.3931 19.0167 82.3598 18.96L82.1648 18.61ZM88.3241 18.575C88.4341 18.4617 88.5474 18.36 88.6641 18.27C88.7841 18.1767 88.9107 18.0967 89.0441 18.03C89.1774 17.9633 89.3191 17.9117 89.4691 17.875C89.6191 17.8383 89.7824 17.82 89.9591 17.82C90.2391 17.82 90.4841 17.8667 90.6941 17.96C90.9074 18.0533 91.0857 18.185 91.2291 18.355C91.3757 18.525 91.4857 18.73 91.5591 18.97C91.6324 19.2067 91.6691 19.4683 91.6691 19.755V23H90.5991V19.755C90.5991 19.4117 90.5191 19.145 90.3591 18.955C90.2024 18.765 89.9624 18.67 89.6391 18.67C89.3991 18.67 89.1757 18.725 88.9691 18.835C88.7657 18.945 88.5741 19.095 88.3941 19.285V23H87.3191V17.9H87.9691C88.1157 17.9 88.2091 17.9683 88.2491 18.105L88.3241 18.575ZM94.7445 20.405C95.0779 20.405 95.3279 20.32 95.4945 20.15C95.6612 19.98 95.7445 19.7583 95.7445 19.485C95.7445 19.205 95.6612 18.9833 95.4945 18.82C95.3279 18.6567 95.0779 18.575 94.7445 18.575C94.4145 18.575 94.1645 18.6567 93.9945 18.82C93.8279 18.9833 93.7445 19.205 93.7445 19.485C93.7445 19.6183 93.7662 19.7417 93.8095 19.855C93.8529 19.9683 93.9162 20.0667 93.9995 20.15C94.0829 20.23 94.1862 20.2933 94.3095 20.34C94.4362 20.3833 94.5812 20.405 94.7445 20.405ZM96.2395 23.25C96.2395 23.1367 96.2062 23.0467 96.1395 22.98C96.0762 22.91 95.9895 22.8567 95.8795 22.82C95.7695 22.78 95.6412 22.7517 95.4945 22.735C95.3479 22.715 95.1912 22.7017 95.0245 22.695C94.8612 22.685 94.6929 22.6767 94.5195 22.67C94.3495 22.66 94.1845 22.6433 94.0245 22.62C93.8645 22.7033 93.7329 22.8033 93.6295 22.92C93.5295 23.0367 93.4795 23.1717 93.4795 23.325C93.4795 23.425 93.5045 23.5183 93.5545 23.605C93.6079 23.6917 93.6879 23.7667 93.7945 23.83C93.9045 23.8933 94.0429 23.9433 94.2095 23.98C94.3795 24.0167 94.5829 24.035 94.8195 24.035C95.2929 24.035 95.6479 23.9617 95.8845 23.815C96.1212 23.6683 96.2395 23.48 96.2395 23.25ZM97.3195 18.085V18.485C97.3195 18.6183 97.2395 18.7 97.0795 18.73L96.5695 18.815C96.6562 19.0083 96.6995 19.2233 96.6995 19.46C96.6995 19.71 96.6495 19.9367 96.5495 20.14C96.4529 20.3433 96.3179 20.5167 96.1445 20.66C95.9712 20.8033 95.7645 20.9133 95.5245 20.99C95.2845 21.0667 95.0245 21.105 94.7445 21.105C94.6379 21.105 94.5329 21.1 94.4295 21.09C94.3295 21.0767 94.2312 21.06 94.1345 21.04C94.0379 21.0967 93.9662 21.1567 93.9195 21.22C93.8729 21.2833 93.8495 21.3483 93.8495 21.415C93.8495 21.525 93.8979 21.6067 93.9945 21.66C94.0912 21.7133 94.2179 21.7517 94.3745 21.775C94.5345 21.7983 94.7162 21.8133 94.9195 21.82C95.1229 21.8267 95.3295 21.8383 95.5395 21.855C95.7495 21.8717 95.9562 21.9 96.1595 21.94C96.3629 21.9767 96.5429 22.04 96.6995 22.13C96.8595 22.2167 96.9879 22.335 97.0845 22.485C97.1812 22.635 97.2295 22.83 97.2295 23.07C97.2295 23.29 97.1745 23.505 97.0645 23.715C96.9545 23.925 96.7945 24.1117 96.5845 24.275C96.3779 24.4383 96.1245 24.5683 95.8245 24.665C95.5245 24.765 95.1829 24.815 94.7995 24.815C94.4195 24.815 94.0879 24.7783 93.8045 24.705C93.5245 24.6317 93.2895 24.5317 93.0995 24.405C92.9129 24.2817 92.7729 24.1383 92.6795 23.975C92.5895 23.8117 92.5445 23.6417 92.5445 23.465C92.5445 23.225 92.6195 23.02 92.7695 22.85C92.9229 22.68 93.1295 22.5467 93.3895 22.45C93.2495 22.3833 93.1362 22.2917 93.0495 22.175C92.9662 22.0583 92.9245 21.905 92.9245 21.715C92.9245 21.565 92.9795 21.4083 93.0895 21.245C93.1995 21.0817 93.3645 20.9433 93.5845 20.83C93.3312 20.69 93.1312 20.505 92.9845 20.275C92.8379 20.0417 92.7645 19.77 92.7645 19.46C92.7645 19.2067 92.8129 18.9783 92.9095 18.775C93.0095 18.5717 93.1479 18.3983 93.3245 18.255C93.5012 18.1117 93.7095 18.0017 93.9495 17.925C94.1929 17.8483 94.4579 17.81 94.7445 17.81C95.1845 17.81 95.5679 17.9017 95.8945 18.085H97.3195ZM100.894 20.77C100.51 20.7833 100.187 20.815 99.9237 20.865C99.6603 20.9117 99.447 20.9733 99.2837 21.05C99.1203 21.1233 99.002 21.2117 98.9287 21.315C98.8587 21.4183 98.8237 21.5317 98.8237 21.655C98.8237 21.775 98.842 21.8783 98.8787 21.965C98.9187 22.0483 98.972 22.1183 99.0387 22.175C99.1087 22.2283 99.1887 22.2683 99.2787 22.295C99.372 22.3183 99.4737 22.33 99.5837 22.33C99.8637 22.33 100.104 22.2783 100.304 22.175C100.507 22.0683 100.704 21.915 100.894 21.715V20.77ZM98.0437 18.61C98.6203 18.0733 99.307 17.805 100.104 17.805C100.397 17.805 100.657 17.8533 100.884 17.95C101.114 18.0433 101.305 18.1767 101.459 18.35C101.615 18.5233 101.734 18.73 101.814 18.97C101.897 19.2067 101.939 19.47 101.939 19.76V23H101.459C101.355 23 101.277 22.985 101.224 22.955C101.17 22.9217 101.125 22.8567 101.089 22.76L100.984 22.345C100.854 22.4617 100.725 22.5667 100.599 22.66C100.472 22.75 100.34 22.8267 100.204 22.89C100.07 22.9533 99.9253 23 99.7687 23.03C99.6153 23.0633 99.4453 23.08 99.2587 23.08C99.052 23.08 98.8587 23.0517 98.6787 22.995C98.502 22.9383 98.3487 22.8533 98.2187 22.74C98.0887 22.6233 97.9853 22.48 97.9087 22.31C97.8353 22.14 97.7987 21.94 97.7987 21.71C97.7987 21.5133 97.8503 21.3217 97.9537 21.135C98.0603 20.9483 98.2337 20.7817 98.4737 20.635C98.717 20.485 99.0353 20.3617 99.4287 20.265C99.8253 20.1683 100.314 20.1133 100.894 20.1V19.76C100.894 19.3933 100.815 19.12 100.659 18.94C100.502 18.76 100.272 18.67 99.9687 18.67C99.762 18.67 99.5887 18.6967 99.4487 18.75C99.3087 18.8 99.187 18.855 99.0837 18.915C98.9803 18.975 98.8887 19.0317 98.8087 19.085C98.7287 19.135 98.6437 19.16 98.5537 19.16C98.4803 19.16 98.417 19.1417 98.3637 19.105C98.3137 19.065 98.272 19.0167 98.2387 18.96L98.0437 18.61ZM104.203 18.575C104.313 18.4617 104.426 18.36 104.543 18.27C104.663 18.1767 104.79 18.0967 104.923 18.03C105.056 17.9633 105.198 17.9117 105.348 17.875C105.498 17.8383 105.661 17.82 105.838 17.82C106.118 17.82 106.363 17.8667 106.573 17.96C106.786 18.0533 106.965 18.185 107.108 18.355C107.255 18.525 107.365 18.73 107.438 18.97C107.511 19.2067 107.548 19.4683 107.548 19.755V23H106.478V19.755C106.478 19.4117 106.398 19.145 106.238 18.955C106.081 18.765 105.841 18.67 105.518 18.67C105.278 18.67 105.055 18.725 104.848 18.835C104.645 18.945 104.453 19.095 104.273 19.285V23H103.198V17.9H103.848C103.995 17.9 104.088 17.9683 104.128 18.105L104.203 18.575ZM29.475 32.47C29.475 32.8733 29.425 33.2367 29.325 33.56C29.2283 33.88 29.0817 34.1533 28.885 34.38C28.6917 34.6033 28.45 34.7767 28.16 34.9C27.8733 35.02 27.54 35.08 27.16 35.08C26.9867 35.08 26.815 35.0683 26.645 35.045C26.475 35.025 26.2983 34.9917 26.115 34.945L26.175 34.245C26.185 34.1783 26.21 34.125 26.25 34.085C26.2933 34.045 26.355 34.025 26.435 34.025C26.495 34.025 26.5717 34.0383 26.665 34.065C26.7617 34.0883 26.8867 34.1 27.04 34.1C27.2433 34.1 27.4233 34.07 27.58 34.01C27.74 33.95 27.8733 33.8567 27.98 33.73C28.09 33.6 28.1717 33.435 28.225 33.235C28.2817 33.0317 28.31 32.7867 28.31 32.5V27.8H29.475V32.47ZM33.4523 32.77C33.0689 32.7833 32.7456 32.815 32.4823 32.865C32.2189 32.9117 32.0056 32.9733 31.8423 33.05C31.6789 33.1233 31.5606 33.2117 31.4873 33.315C31.4173 33.4183 31.3823 33.5317 31.3823 33.655C31.3823 33.775 31.4006 33.8783 31.4373 33.965C31.4773 34.0483 31.5306 34.1183 31.5973 34.175C31.6673 34.2283 31.7473 34.2683 31.8373 34.295C31.9306 34.3183 32.0323 34.33 32.1423 34.33C32.4223 34.33 32.6623 34.2783 32.8623 34.175C33.0656 34.0683 33.2623 33.915 33.4523 33.715V32.77ZM30.6023 30.61C31.1789 30.0733 31.8656 29.805 32.6623 29.805C32.9556 29.805 33.2156 29.8533 33.4423 29.95C33.6723 30.0433 33.8639 30.1767 34.0173 30.35C34.1739 30.5233 34.2923 30.73 34.3723 30.97C34.4556 31.2067 34.4973 31.47 34.4973 31.76V35H34.0173C33.9139 35 33.8356 34.985 33.7823 34.955C33.7289 34.9217 33.6839 34.8567 33.6473 34.76L33.5423 34.345C33.4123 34.4617 33.2839 34.5667 33.1573 34.66C33.0306 34.75 32.8989 34.8267 32.7623 34.89C32.6289 34.9533 32.4839 35 32.3273 35.03C32.1739 35.0633 32.0039 35.08 31.8173 35.08C31.6106 35.08 31.4173 35.0517 31.2373 34.995C31.0606 34.9383 30.9073 34.8533 30.7773 34.74C30.6473 34.6233 30.5439 34.48 30.4673 34.31C30.3939 34.14 30.3573 33.94 30.3573 33.71C30.3573 33.5133 30.4089 33.3217 30.5123 33.135C30.6189 32.9483 30.7923 32.7817 31.0323 32.635C31.2756 32.485 31.5939 32.3617 31.9873 32.265C32.3839 32.1683 32.8723 32.1133 33.4523 32.1V31.76C33.4523 31.3933 33.3739 31.12 33.2173 30.94C33.0606 30.76 32.8306 30.67 32.5273 30.67C32.3206 30.67 32.1473 30.6967 32.0073 30.75C31.8673 30.8 31.7456 30.855 31.6423 30.915C31.5389 30.975 31.4473 31.0317 31.3673 31.085C31.2873 31.135 31.2023 31.16 31.1123 31.16C31.0389 31.16 30.9756 31.1417 30.9223 31.105C30.8723 31.065 30.8306 31.0167 30.7973 30.96L30.6023 30.61ZM42.8825 29.9L41.2475 35H40.3925C40.2925 35 40.2225 34.935 40.1825 34.805L39.1675 31.63C39.1408 31.54 39.1158 31.45 39.0925 31.36C39.0725 31.27 39.0542 31.1817 39.0375 31.095C39.0008 31.275 38.9558 31.455 38.9025 31.635L37.8725 34.805C37.8358 34.935 37.7575 35 37.6375 35H36.8225L35.1875 29.9H36.0375C36.1208 29.9 36.1892 29.9217 36.2425 29.965C36.2992 30.005 36.3358 30.0533 36.3525 30.11L37.2025 33.08C37.2358 33.2167 37.2642 33.35 37.2875 33.48C37.3142 33.6067 37.3375 33.7333 37.3575 33.86C37.3908 33.7333 37.4258 33.6067 37.4625 33.48C37.4992 33.35 37.5375 33.2167 37.5775 33.08L38.5325 30.095C38.5492 30.035 38.5825 29.9867 38.6325 29.95C38.6858 29.91 38.7492 29.89 38.8225 29.89H39.2925C39.3692 29.89 39.4342 29.91 39.4875 29.95C39.5408 29.9867 39.5758 30.035 39.5925 30.095L40.5225 33.08C40.5625 33.2167 40.5992 33.35 40.6325 33.48C40.6692 33.61 40.7025 33.74 40.7325 33.87C40.7558 33.7433 40.7808 33.615 40.8075 33.485C40.8342 33.355 40.8658 33.22 40.9025 33.08L41.7675 30.11C41.7875 30.05 41.8242 30 41.8775 29.96C41.9308 29.92 41.9958 29.9 42.0725 29.9H42.8825ZM46.3234 32.77C45.94 32.7833 45.6167 32.815 45.3534 32.865C45.09 32.9117 44.8767 32.9733 44.7134 33.05C44.55 33.1233 44.4317 33.2117 44.3584 33.315C44.2884 33.4183 44.2534 33.5317 44.2534 33.655C44.2534 33.775 44.2717 33.8783 44.3084 33.965C44.3484 34.0483 44.4017 34.1183 44.4684 34.175C44.5384 34.2283 44.6184 34.2683 44.7084 34.295C44.8017 34.3183 44.9034 34.33 45.0134 34.33C45.2934 34.33 45.5334 34.2783 45.7334 34.175C45.9367 34.0683 46.1334 33.915 46.3234 33.715V32.77ZM43.4734 30.61C44.05 30.0733 44.7367 29.805 45.5334 29.805C45.8267 29.805 46.0867 29.8533 46.3134 29.95C46.5434 30.0433 46.735 30.1767 46.8884 30.35C47.045 30.5233 47.1634 30.73 47.2434 30.97C47.3267 31.2067 47.3684 31.47 47.3684 31.76V35H46.8884C46.785 35 46.7067 34.985 46.6534 34.955C46.6 34.9217 46.555 34.8567 46.5184 34.76L46.4134 34.345C46.2834 34.4617 46.155 34.5667 46.0284 34.66C45.9017 34.75 45.77 34.8267 45.6334 34.89C45.5 34.9533 45.355 35 45.1984 35.03C45.045 35.0633 44.875 35.08 44.6884 35.08C44.4817 35.08 44.2884 35.0517 44.1084 34.995C43.9317 34.9383 43.7784 34.8533 43.6484 34.74C43.5184 34.6233 43.415 34.48 43.3384 34.31C43.265 34.14 43.2284 33.94 43.2284 33.71C43.2284 33.5133 43.28 33.3217 43.3834 33.135C43.49 32.9483 43.6634 32.7817 43.9034 32.635C44.1467 32.485 44.465 32.3617 44.8584 32.265C45.255 32.1683 45.7434 32.1133 46.3234 32.1V31.76C46.3234 31.3933 46.245 31.12 46.0884 30.94C45.9317 30.76 45.7017 30.67 45.3984 30.67C45.1917 30.67 45.0184 30.6967 44.8784 30.75C44.7384 30.8 44.6167 30.855 44.5134 30.915C44.41 30.975 44.3184 31.0317 44.2384 31.085C44.1584 31.135 44.0734 31.16 43.9834 31.16C43.91 31.16 43.8467 31.1417 43.7934 31.105C43.7434 31.065 43.7017 31.0167 43.6684 30.96L43.4734 30.61ZM53.9379 34.075C54.2012 34.075 54.4229 34.045 54.6029 33.985C54.7862 33.9217 54.9346 33.8367 55.0479 33.73C55.1646 33.6233 55.2479 33.4983 55.2979 33.355C55.3512 33.2083 55.3779 33.0517 55.3779 32.885C55.3779 32.545 55.2612 32.2783 55.0279 32.085C54.7979 31.8883 54.4329 31.79 53.9329 31.79H52.4879V34.075H53.9379ZM52.4879 28.715V30.965H53.6579C54.1579 30.965 54.5312 30.8683 54.7779 30.675C55.0246 30.4817 55.1479 30.2033 55.1479 29.84C55.1479 29.4433 55.0312 29.1567 54.7979 28.98C54.5679 28.8033 54.2062 28.715 53.7129 28.715H52.4879ZM53.7129 27.8C54.1729 27.8 54.5662 27.845 54.8929 27.935C55.2196 28.0217 55.4879 28.1467 55.6979 28.31C55.9079 28.4733 56.0612 28.6733 56.1579 28.91C56.2579 29.1433 56.3079 29.4067 56.3079 29.7C56.3079 29.87 56.2812 30.035 56.2279 30.195C56.1779 30.3517 56.0979 30.5 55.9879 30.64C55.8812 30.7767 55.7462 30.9 55.5829 31.01C55.4196 31.12 55.2262 31.2117 55.0029 31.285C56.0229 31.5017 56.5329 32.0433 56.5329 32.91C56.5329 33.2167 56.4746 33.4983 56.3579 33.755C56.2446 34.0083 56.0779 34.2283 55.8579 34.415C55.6412 34.5983 55.3729 34.7417 55.0529 34.845C54.7329 34.9483 54.3679 35 53.9579 35H51.3179V27.8H53.7129ZM60.298 32.77C59.9146 32.7833 59.5913 32.815 59.328 32.865C59.0646 32.9117 58.8513 32.9733 58.688 33.05C58.5246 33.1233 58.4063 33.2117 58.333 33.315C58.263 33.4183 58.228 33.5317 58.228 33.655C58.228 33.775 58.2463 33.8783 58.283 33.965C58.323 34.0483 58.3763 34.1183 58.443 34.175C58.513 34.2283 58.593 34.2683 58.683 34.295C58.7763 34.3183 58.878 34.33 58.988 34.33C59.268 34.33 59.508 34.2783 59.708 34.175C59.9113 34.0683 60.108 33.915 60.298 33.715V32.77ZM57.448 30.61C58.0246 30.0733 58.7113 29.805 59.508 29.805C59.8013 29.805 60.0613 29.8533 60.288 29.95C60.518 30.0433 60.7096 30.1767 60.863 30.35C61.0196 30.5233 61.138 30.73 61.218 30.97C61.3013 31.2067 61.343 31.47 61.343 31.76V35H60.863C60.7596 35 60.6813 34.985 60.628 34.955C60.5746 34.9217 60.5296 34.8567 60.493 34.76L60.388 34.345C60.258 34.4617 60.1296 34.5667 60.003 34.66C59.8763 34.75 59.7446 34.8267 59.608 34.89C59.4746 34.9533 59.3296 35 59.173 35.03C59.0196 35.0633 58.8496 35.08 58.663 35.08C58.4563 35.08 58.263 35.0517 58.083 34.995C57.9063 34.9383 57.753 34.8533 57.623 34.74C57.493 34.6233 57.3896 34.48 57.313 34.31C57.2396 34.14 57.203 33.94 57.203 33.71C57.203 33.5133 57.2546 33.3217 57.358 33.135C57.4646 32.9483 57.638 32.7817 57.878 32.635C58.1213 32.485 58.4396 32.3617 58.833 32.265C59.2296 32.1683 59.718 32.1133 60.298 32.1V31.76C60.298 31.3933 60.2196 31.12 60.063 30.94C59.9063 30.76 59.6763 30.67 59.373 30.67C59.1663 30.67 58.993 30.6967 58.853 30.75C58.713 30.8 58.5913 30.855 58.488 30.915C58.3846 30.975 58.293 31.0317 58.213 31.085C58.133 31.135 58.048 31.16 57.958 31.16C57.8846 31.16 57.8213 31.1417 57.768 31.105C57.718 31.065 57.6763 31.0167 57.643 30.96L57.448 30.61ZM63.6173 30.845C63.7773 30.5217 63.9706 30.2683 64.1973 30.085C64.4239 29.8983 64.6956 29.805 65.0123 29.805C65.1223 29.805 65.2256 29.8183 65.3223 29.845C65.4189 29.8683 65.5056 29.905 65.5823 29.955L65.5073 30.765C65.4939 30.8217 65.4723 30.8617 65.4423 30.885C65.4156 30.905 65.3789 30.915 65.3323 30.915C65.2823 30.915 65.2106 30.9067 65.1173 30.89C65.0239 30.87 64.9256 30.86 64.8223 30.86C64.6723 30.86 64.5389 30.8817 64.4223 30.925C64.3089 30.9683 64.2056 31.0317 64.1123 31.115C64.0223 31.1983 63.9423 31.3 63.8723 31.42C63.8023 31.54 63.7373 31.6767 63.6773 31.83V35H62.6023V29.9H63.2273C63.3406 29.9 63.4189 29.9217 63.4623 29.965C63.5056 30.005 63.5356 30.0767 63.5523 30.18L63.6173 30.845ZM68.9405 32.77C68.5572 32.7833 68.2339 32.815 67.9705 32.865C67.7072 32.9117 67.4939 32.9733 67.3305 33.05C67.1672 33.1233 67.0489 33.2117 66.9755 33.315C66.9055 33.4183 66.8705 33.5317 66.8705 33.655C66.8705 33.775 66.8889 33.8783 66.9255 33.965C66.9655 34.0483 67.0189 34.1183 67.0855 34.175C67.1555 34.2283 67.2355 34.2683 67.3255 34.295C67.4189 34.3183 67.5205 34.33 67.6305 34.33C67.9105 34.33 68.1505 34.2783 68.3505 34.175C68.5539 34.0683 68.7505 33.915 68.9405 33.715V32.77ZM66.0905 30.61C66.6672 30.0733 67.3539 29.805 68.1505 29.805C68.4439 29.805 68.7039 29.8533 68.9305 29.95C69.1605 30.0433 69.3522 30.1767 69.5055 30.35C69.6622 30.5233 69.7805 30.73 69.8605 30.97C69.9439 31.2067 69.9855 31.47 69.9855 31.76V35H69.5055C69.4022 35 69.3239 34.985 69.2705 34.955C69.2172 34.9217 69.1722 34.8567 69.1355 34.76L69.0305 34.345C68.9005 34.4617 68.7722 34.5667 68.6455 34.66C68.5189 34.75 68.3872 34.8267 68.2505 34.89C68.1172 34.9533 67.9722 35 67.8155 35.03C67.6622 35.0633 67.4922 35.08 67.3055 35.08C67.0989 35.08 66.9055 35.0517 66.7255 34.995C66.5489 34.9383 66.3955 34.8533 66.2655 34.74C66.1355 34.6233 66.0322 34.48 65.9555 34.31C65.8822 34.14 65.8455 33.94 65.8455 33.71C65.8455 33.5133 65.8972 33.3217 66.0005 33.135C66.1072 32.9483 66.2805 32.7817 66.5205 32.635C66.7639 32.485 67.0822 32.3617 67.4755 32.265C67.8722 32.1683 68.3605 32.1133 68.9405 32.1V31.76C68.9405 31.3933 68.8622 31.12 68.7055 30.94C68.5489 30.76 68.3189 30.67 68.0155 30.67C67.8089 30.67 67.6355 30.6967 67.4955 30.75C67.3555 30.8 67.2339 30.855 67.1305 30.915C67.0272 30.975 66.9355 31.0317 66.8555 31.085C66.7755 31.135 66.6905 31.16 66.6005 31.16C66.5272 31.16 66.4639 31.1417 66.4105 31.105C66.3605 31.065 66.3189 31.0167 66.2855 30.96L66.0905 30.61ZM72.8115 35.08C72.3882 35.08 72.0615 34.9617 71.8315 34.725C71.6048 34.485 71.4915 34.1483 71.4915 33.715V30.745H70.9315C70.8715 30.745 70.8198 30.7267 70.7765 30.69C70.7332 30.65 70.7115 30.5917 70.7115 30.515V30.08L71.5365 29.96L71.7715 28.485C71.7882 28.4283 71.8165 28.3833 71.8565 28.35C71.8965 28.3133 71.9498 28.295 72.0165 28.295H72.5665V29.97H73.9815V30.745H72.5665V33.64C72.5665 33.8233 72.6115 33.9633 72.7015 34.06C72.7915 34.1567 72.9115 34.205 73.0615 34.205C73.1448 34.205 73.2165 34.195 73.2765 34.175C73.3365 34.1517 73.3882 34.1283 73.4315 34.105C73.4748 34.0783 73.5115 34.055 73.5415 34.035C73.5748 34.0117 73.6065 34 73.6365 34C73.6965 34 73.7448 34.0333 73.7815 34.1L74.1015 34.625C73.9348 34.7717 73.7382 34.885 73.5115 34.965C73.2848 35.0417 73.0515 35.08 72.8115 35.08Z" fill="#415C84"/>
<circle cx="10" cy="2" r="0.5" fill="#1BACE3"/>
<circle cx="10" cy="3.5" r="0.5" fill="#1BACE3"/>
<circle cx="10" cy="5" r="0.5" fill="#1BACE3"/>
<path d="M10 6V1" stroke="#1BACE3" stroke-width="0.4" stroke-linecap="round"/>
<path d="M6 8.29999L10 6.79999L14 8.29999" stroke="#1BACE3" stroke-linecap="round"/>
<path d="M8.5 14.5L9.5 15.5M7.5 25L7 29H5L7 30.5L9 31.5M7 29.5H8L8.5 28.5L9 28L8.5 27H5.5L5 28M5 28V28.5M5 28L5.5 26L3.5 22.5H2V23.5L2.5 25L3 27L5 30.5L9 33.5L9.5 32.5V23L10 21L9.5 20.5H9L3 21.5H1.5V20.5L2 20L6.61538 18.7692M1 15.5L10.5 13.5L10 16L4.5 16.5L9 15L2 16.75M2 16.75L1 17L2 16.5V16.75ZM2 16.75V18.5L5 18L8.5 17L10.5 17.5V19L8 19.5V18.625M8 18.625L3.5 20.5L6.61538 18.7692M8 18.625L9.5 18L8 18.4M8 18.625V18.4M8 18.4V18L6.61538 18.7692M8 18.4L6.61538 18.7692" stroke="#059657" stroke-width="2"/>
<path d="M5.04564 12.9909C2.3572 13.8067 0.122277 14.4912 0.0755218 14.51C-0.00863832 14.5428 -0.00863833 14.7069 0.0100639 18.7483C0.0287662 23.3383 0.0240906 23.2164 0.318651 24.4353C0.875043 26.7327 2.28239 29.1238 4.32093 31.2242C5.86854 32.8229 7.48161 34.07 9.4547 35.1906L10.0017 35.5L10.5535 35.1906C15.2477 32.5182 18.717 28.4299 19.6848 24.4353C19.9794 23.2164 19.9747 23.3383 19.9934 18.7671C20.0074 16.465 19.9981 14.5616 19.9747 14.5428C19.9373 14.5006 10.0298 11.4906 9.96901 11.5C9.94563 11.5047 7.73409 12.1752 5.04564 12.9909ZM10.0017 23.432V33.7747L9.82874 33.6668C8.23438 32.6963 7.21978 31.9321 5.93867 30.7272C3.89078 28.8003 2.34784 26.3529 1.79613 24.154C1.54365 23.1413 1.53897 23.0382 1.53897 19.1984V15.6352L5.71425 14.3693C8.00527 13.6708 9.9129 13.0988 9.94563 13.0941C9.98771 13.0894 10.0017 15.1851 10.0017 23.432Z" fill="#1BACE3"/>
<path d="M9.47865 23.7745C9.47865 26.2859 8.02555 28.3279 6.23932 28.3279C4.44736 28.3279 3 26.2918 3 23.7745C3 21.7325 3.95916 20.0015 5.28016 19.4265V14.3274C5.88323 13.9812 6.5265 13.7054 7.20423 13.5V19.4323C8.51949 20.0015 9.47865 21.7325 9.47865 23.7745Z" fill="#FFC62B"/>
<path d="M17.5604 17.652V22.4812C17.5604 23.7076 16.7965 24.7579 15.7339 25.1628V30.6374C15.1021 31.0012 14.4302 31.2888 13.7237 31.5V25.1393C12.6669 24.6992 11.949 23.6019 11.949 22.3873V17.6755C11.949 17.1004 12.374 16.6193 12.9196 16.543V20.0989C12.9196 20.4333 13.1896 20.7091 13.5169 20.7091C13.6835 20.7091 13.8328 20.6387 13.942 20.5272C14.0511 20.4157 14.1143 20.2632 14.1143 20.0989V17.1826C14.1143 16.9889 14.1889 16.7953 14.3383 16.6721C14.4474 16.5841 14.5795 16.5312 14.7288 16.5312C14.8437 16.5312 14.9586 16.5606 15.0505 16.6193C15.24 16.7366 15.3434 16.9596 15.3434 17.1884V20.0989C15.3434 20.4333 15.6133 20.7091 15.9407 20.7091C16.1073 20.7091 16.2566 20.6387 16.3657 20.5272C16.4748 20.4157 16.538 20.2632 16.538 20.0989V16.5371C17.1124 16.5782 17.5604 17.0594 17.5604 17.652Z" fill="#FFC62B"/>
<path d="M1 13L10 10L19 13" stroke="#1BACE3" stroke-linecap="round"/>
<path d="M1 15.8L10 12.8L19 15.8" stroke="#1BACE3" stroke-width="0.5"/>
<path d="M4 10.5L10 8.5L16 10.5" stroke="#1BACE3" stroke-linecap="round"/>
<path d="M19 25L17.5 28L17 28.73L16.5 29.5L15.5 30.4999L15 30.9999L14.5 31.4999L14 31.9999L12 33.4999L10.5 34.5001" stroke="#1BACE3"/>
</svg>
